<svg xmlns="http://www.w3.org/2000/svg" viewBox="0 0 82.18607 115.43015">
  <defs>
    <style>
      .\36 d54e332-5c23-48ff-a85f-a2e735aa6cf8 {
        fill: #68401e;
      }

      .\31 4a1d08c-2035-4ca9-ac38-b2fe3d369568, .\36 d54e332-5c23-48ff-a85f-a2e735aa6cf8, .\37 64aaa14-cffd-4469-9d83-60d45b9b8eb7, .b12e89d8-4662-4d78-9ee3-0ead82c0ba43, .c0081b3a-2810-446a-b08b-6df62362bf7b, .ca2b84e1-ea83-4c44-b339-26a27148e7dd {
        stroke: #231f20;
      }

      .\31 4a1d08c-2035-4ca9-ac38-b2fe3d369568, .\36 d54e332-5c23-48ff-a85f-a2e735aa6cf8, .\37 64aaa14-cffd-4469-9d83-60d45b9b8eb7, .a19a7286-9c61-4cbc-82a0-96a3fb552b66, .b12e89d8-4662-4d78-9ee3-0ead82c0ba43, .b316eac4-ef97-4460-9971-8bcb09f08996, .c0081b3a-2810-446a-b08b-6df62362bf7b, .ca2b84e1-ea83-4c44-b339-26a27148e7dd, .dd5d73b1-6223-4a6a-9106-8dce4b106986 {
        stroke-miterlimit: 10;
      }

      .\31 4a1d08c-2035-4ca9-ac38-b2fe3d369568, .\36 d54e332-5c23-48ff-a85f-a2e735aa6cf8, .\37 64aaa14-cffd-4469-9d83-60d45b9b8eb7, .a19a7286-9c61-4cbc-82a0-96a3fb552b66, .b12e89d8-4662-4d78-9ee3-0ead82c0ba43, .b316eac4-ef97-4460-9971-8bcb09f08996, .c0081b3a-2810-446a-b08b-6df62362bf7b, .ca2b84e1-ea83-4c44-b339-26a27148e7dd {
        stroke-width: 0.25px;
      }

      .\31 4a1d08c-2035-4ca9-ac38-b2fe3d369568, .\39 23e919a-c220-4ae8-9329-78a177bfbfa8 {
        fill: #c59a70;
      }

      .\35 5dcd6a7-3eee-486b-aa84-c7bd05768825, .a19a7286-9c61-4cbc-82a0-96a3fb552b66, .dd5d73b1-6223-4a6a-9106-8dce4b106986 {
        fill: #6c401d;
      }

      .a19a7286-9c61-4cbc-82a0-96a3fb552b66, .b316eac4-ef97-4460-9971-8bcb09f08996, .dd5d73b1-6223-4a6a-9106-8dce4b106986 {
        stroke: #000;
      }

      .dd5d73b1-6223-4a6a-9106-8dce4b106986 {
        stroke-width: 0.15px;
      }

      .\37 64aaa14-cffd-4469-9d83-60d45b9b8eb7 {
        fill: #c49a70;
      }

      .b12e89d8-4662-4d78-9ee3-0ead82c0ba43 {
        fill: #6a3f18;
      }

      .\32 8f22511-ab43-4eda-ab93-714d730c3653, .ca2b84e1-ea83-4c44-b339-26a27148e7dd {
        fill: #c39a70;
      }

      .c0081b3a-2810-446a-b08b-6df62362bf7b {
        fill: none;
      }

      .b316eac4-ef97-4460-9971-8bcb09f08996 {
        font-size: 24.3903px;
        fill: #fff8f3;
        font-family: BrandonGrotesque-BlackItalic, Brandon Grotesque;
        font-style: italic;
      }

      .\38 0e6d354-9c27-4e0e-93d6-ed0454897d93 {
        letter-spacing: -0.01201em;
      }

      .\30 e09560f-c636-4c53-a539-a36a7a48f20f {
        font-size: 14.41118px;
      }
    </style>
  </defs>
  <title>0-3-sign</title>
  <g id="e0e3005f-4d0d-4717-b708-53f59bd0d1b7" data-name="Layer 2">
    <g id="206f511c-a391-44c1-b7d6-3b9fa06daf8e" data-name="Layer 1">
      <g>
        <path class="6d54e332-5c23-48ff-a85f-a2e735aa6cf8" d="M29.36176,13.50949l13.85952-1.814S43.30492,4.5797,40.86711,2.756A16.78939,16.78939,0,0,0,35.17965.22994,7.137,7.137,0,0,0,31.227,1.48032a9.5792,9.5792,0,0,0-2.65988,2.942,7.5856,7.5856,0,0,0-.014,2.90865Z"/>
        <path class="14a1d08c-2035-4ca9-ac38-b2fe3d369568" d="M38.71105,12.36033l4.51023-.66482-.57876-6.20864A5.12242,5.12242,0,0,0,40.86711,2.756c-1.31217-.85623-4.0883-2.29733-4.0883-2.29733A6.10738,6.10738,0,0,0,32.43139.539c-2.74445.882-2.877,4.03162-2.877,4.03162S29.34629,6.62205,32.035,6.87521a10.11733,10.11733,0,0,1,4.02081,1.06617A6.02008,6.02008,0,0,1,38.71105,12.36033Z"/>
        <path class="923e919a-c220-4ae8-9329-78a177bfbfa8" d="M30.462,11.37539a8.39617,8.39617,0,0,1,.39042,1.73965c.14461.45871.86892.2628.72321-.19938a8.88675,8.88675,0,0,0-.466-1.91881.37528.37528,0,0,0-.64761.37854Z"/>
        <polygon class="a19a7286-9c61-4cbc-82a0-96a3fb552b66" points="76.012 9.911 76.059 8.862 71.477 9.462 71.954 10.959 76.012 9.911"/>
        <polygon class="dd5d73b1-6223-4a6a-9106-8dce4b106986" points="77.138 15.641 77.417 16.9 72.531 17.919 72.316 16.272 77.138 15.641"/>
        <polygon class="a19a7286-9c61-4cbc-82a0-96a3fb552b66" points="76.066 12.663 76.081 14.044 68.129 15.738 68.362 13.473 76.066 12.663"/>
        <path class="55dcd6a7-3eee-486b-aa84-c7bd05768825" d="M68.80442,9.467c-5.08,1.53029-10.17319,3.32529-15.36862,4.42092-5.48989,1.15772-11.00183-.42154-16.31866.80174-2.29491.528-4.46647,1.63751-6.778,2.181a35.59613,35.59613,0,0,1-11.17284.43682c-3.59709-.26042-6.22053.75144-9.41555,2.38155-.26574.13558-.02493.32342.18219.21774a19.18985,19.18985,0,0,1,10.68994-2.14465,30.211,30.211,0,0,0,5.31622.07791C31.02557,17.41243,35.9622,14.60288,41.005,14.695c4.32323.079,8.1863.37623,12.5-.54913,5.2-1.1155,10.28033-2.88814,15.36862-4.42091.26032-.07842.19543-.33761-.06911-.25793Z"/>
        <path class="a19a7286-9c61-4cbc-82a0-96a3fb552b66" d="M1.5073,16.87768A12.68375,12.68375,0,0,0,.13614,19.20906c-.10769.55514.601.43416.601.43416s-.17053.65413-.2245.76365a9.83792,9.83792,0,0,0,.14661,1.381l.55041.03041s.34358.66041-.22951.768.31265.64412.31265.64412a.64307.64307,0,0,1-.34406.86056c-.60785.34053.91933.79307,1.15491.59913s.11868,1.19145-.31007.88873-.54146,1.11475.12593.96215a5.7466,5.7466,0,0,1,.00327,2.25044l1.0431-.267-.49066.74926A.85281.85281,0,0,0,2.5496,30.3405a24.93939,24.93939,0,0,1,1.49879,2.47877s.20385.5605,3.26981-.68893a14.84556,14.84556,0,0,0,3.57223-1.12c.743-.554,5.81607-.92434,5.81607-.92434s2.63408-.31213,5.12879-.44292,7.93465-.19037,11.95621-.61886,13.70691-2.44644,13.70691-2.44644a32.42955,32.42955,0,0,0,5.40332-1.08124,12.05591,12.05591,0,0,1,4.00139-.556,30.64983,30.64983,0,0,0,6.65512-1.03272,9.19032,9.19032,0,0,1,2.698-.38546,18.298,18.298,0,0,0,3.74291-.55456s1.44986-.28677,3.45114-.80738l2.35247-.3079,2.07705-1.41944L39.56606,17.68123Z"/>
        <path class="764aaa14-cffd-4469-9d83-60d45b9b8eb7" d="M77.41738,16.89991s-3.98328.95051-5.00292.6548c0,0,3.5929-.65418,4.54659-1.33078s-1.08559-1.268-1.08559-1.268a1.87216,1.87216,0,0,0,.11993-1.4258s-5.54763,1.64572-7.41681.48027c0,0,5.88118-.034,7.48719-1.34781a3.54386,3.54386,0,0,1-.45411-1.5959,8.26727,8.26727,0,0,1,.40048-1.156s-2.35583.7375-3.13437.41024,3.18108-1.4586,3.18108-1.4586-1.27936-.8748-1.19321-1.62178-3.60079.5939-8.43866,1.10448-13.321,1.74351-13.321,1.74351a80.78961,80.78961,0,0,0-10.41767.50518c-3.6008.5939-15.40925,3.12038-15.40925,3.12038S9.608,16.88529,2.35623,17.22134l-.08106,2.28813.91762.14932-.37461.79743,3.19789-.26887A4.873,4.873,0,0,1,3.107,21.29018l.19877,1.97608,6.44169-.873a15.57375,15.57375,0,0,1-6.40425,1.61655s.50311.41312.03744.74349.44208,1.3192.44208,1.3192.65936.692.23468,1.10684l6.15123-.80509A44.39564,44.39564,0,0,1,3.8145,27.83973c-1.7263.07627-.04454.57462-.04454.57462s.38785.21866-.42714.62469.88325.57292.88325.57292.32267.4068-.77509.93965,2.69677.00106,2.69677.00106,10.5414-.821,13.46466-2.091,8.02487-1.21466,9.23315-1.2742,4.02257.098,12.97877-1.53438c0,0,12.86461-1.384,13.81128-2.30865s9.20207-1.07094,9.20207-1.07094a16.43779,16.43779,0,0,0,5.582-1.19771,7.31074,7.31074,0,0,1,4.68382-.41285,6.68672,6.68672,0,0,0,2.77626-.2299s.196-.657-1.05679-1.31752C76.823,19.11554,77.90913,17.89515,77.41738,16.89991Z"/>
        <path class="55dcd6a7-3eee-486b-aa84-c7bd05768825" d="M8.44028,18.80228c3.88353-1.003,7.94383-.492,11.81508-1.43776,3.96214-.96792,7.56152-2.72636,11.65213-3.42256a108.34416,108.34416,0,0,1,11.3362-1.34235c4.67556-.29542,9.38167-.18228,14.04373-.68356,3.7514-.40337,7.76793-2.38781,11.4722-2.37074.14657.00067.82555-.14983.36346-.152-4.86463-.02241-9.41671,2.24482-14.33657,2.60505-5.606.41047-11.20336.30711-16.79888.94843a89.28715,89.28715,0,0,0-13.37529,2.50582c-5.53706,1.50953-11.18222,1.89454-16.70915,3.32195-.29431.076.42431.05681.53709.02768Z"/>
        <polygon class="dd5d73b1-6223-4a6a-9106-8dce4b106986" points="78.518 30.571 78.807 31.405 74.769 32.469 74.554 30.822 78.518 30.571"/>
        <polygon class="a19a7286-9c61-4cbc-82a0-96a3fb552b66" points="78.282 27.852 78.319 28.595 70.367 30.288 70.6 28.023 78.282 27.852"/>
        <path class="55dcd6a7-3eee-486b-aa84-c7bd05768825" d="M71.04245,24.01755c-5.08,1.53028-10.17319,3.32529-15.36862,4.42092-5.48989,1.15772-11.00183-.42154-16.31866.80174-2.29492.528-4.46647,1.63751-6.778,2.181a35.59613,35.59613,0,0,1-11.17284.43682c-3.59709-.26042-6.22053.75143-9.41555,2.38154-.26574.13558-.02493.32343.18219.21775a19.18983,19.18983,0,0,1,10.68993-2.14465,30.21111,30.21111,0,0,0,5.31623.07791C33.2636,31.963,38.20022,29.15342,43.243,29.24552c4.32324.079,8.18631.37623,12.5-.54913,5.2-1.1155,10.28033-2.88814,15.36862-4.42092.26032-.07841.19543-.33761-.06911-.25792Z"/>
        <polygon class="6d54e332-5c23-48ff-a85f-a2e735aa6cf8" points="78.456 23.94 77.568 24.682 70.612 26.093 72.911 23.145 78.456 23.94"/>
        <path class="a19a7286-9c61-4cbc-82a0-96a3fb552b66" d="M3.74533,31.42822A12.68375,12.68375,0,0,0,2.37417,33.7596c-.10769.55513.601.43416.601.43416s-.17052.65413-.22449.76365a9.83786,9.83786,0,0,0,.1466,1.381l.55041.03042s.34359.6604-.2295.768.31265.64413.31265.64413a.64307.64307,0,0,1-.34406.86056c-.60785.34053.91933.79307,1.15491.59913s.11868,1.19145-.31007.88873-.54147,1.11475.12593.96215A5.74656,5.74656,0,0,1,4.16081,43.342l1.0431-.267-.49066.74926A.85281.85281,0,0,0,4.78763,44.891a24.93939,24.93939,0,0,1,1.49879,2.47877s.20385.5605,3.26981-.68893a14.84556,14.84556,0,0,0,3.57223-1.12c.743-.554,5.81607-.92434,5.81607-.92434s2.63408-.31214,5.12879-.44293,7.93465-.19036,11.95621-.61886,13.7069-2.44643,13.7069-2.44643a32.43044,32.43044,0,0,0,5.40332-1.08124,12.05612,12.05612,0,0,1,4.0014-.55606,30.64915,30.64915,0,0,0,6.65512-1.03272,9.1907,9.1907,0,0,1,2.698-.38546,18.29827,18.29827,0,0,0,3.74291-.55455s1.44986-.28677,3.45114-.80738l2.35247-.3079,1.22812-1.7631L41.80408,32.23176Z"/>
        <path class="764aaa14-cffd-4469-9d83-60d45b9b8eb7" d="M4.20776,34.96137s3.98328-.95051,5.00292-.6548c0,0-3.5929.65417-4.54659,1.33078s1.08559,1.268,1.08559,1.268a1.87216,1.87216,0,0,0-.11993,1.4258s5.54763-1.64573,7.41681-.48027c0,0-5.88118.03405-7.48719,1.3478a3.5439,3.5439,0,0,1,.45411,1.5959,8.26709,8.26709,0,0,1-.40048,1.156s2.35583-.7375,3.13437-.41024-3.18108,1.4586-3.18108,1.4586,1.27936.8748,1.19321,1.62178,3.60079-.5939,8.43866-1.10448,13.321-1.74351,13.321-1.74351a80.78961,80.78961,0,0,0,10.41767-.50518c3.6008-.5939,15.40925-3.12038,15.40925-3.12038s17.671-3.17117,24.92279-3.50722L79.35,32.3518l-.91762-.14932.37461-.79743-3.19789.26888a4.873,4.873,0,0,1,2.90912-1.10283L78.31942,28.595l-6.44169.873A15.57375,15.57375,0,0,1,78.282,27.85152s-.50311-.41313-.03744-.7435-.44208-1.31919-.44208-1.31919-.65936-.692-.23468-1.10685l-6.15123.8051a44.39669,44.39669,0,0,1,6.39409-1.46554c1.7263-.07626.04454-.57461.04454-.57461s-.38785-.21866.42714-.62469-.88325-.57292-.88325-.57292-.32267-.40681.77509-.93965-2.69677-.00106-2.69677-.00106-10.5414.821-13.46466,2.091-8.02487,1.21466-9.23315,1.27421-4.02257-.098-12.97877,1.53437c0,0-12.86461,1.384-13.81128,2.30865s-9.20207,1.07095-9.20207,1.07095a16.43752,16.43752,0,0,0-5.582,1.19771,7.3107,7.3107,0,0,1-4.68382.41284,6.68688,6.68688,0,0,0-2.77626.22991s-.196.657,1.05679,1.31752C4.80212,32.74574,3.716,33.96612,4.20776,34.96137Z"/>
        <path class="b12e89d8-4662-4d78-9ee3-0ead82c0ba43" d="M36.01609,59.06764l9.20462-1.20474s.42137,9.30716,2.21521,12.35914,4.83547,16.39853,4.83547,16.39853a11.77741,11.77741,0,0,0,.87936,4.382,21.286,21.286,0,0,1,1.20364,5.6032,8.49233,8.49233,0,0,0,1.14736,3.37682,49.43725,49.43725,0,0,1,2.64846,5.41409l.49167,3.75655s.38033,2.00763.86537,2.12049.76219,1.7813-.50654,2.41762a7.64828,7.64828,0,0,1-2.85183.66717,5.37446,5.37446,0,0,0-2.43971.672,2.48861,2.48861,0,0,1-2.47274-.14662,4.11634,4.11634,0,0,0-1.73162-.53754,1.52943,1.52943,0,0,1-1.25691-1.06993s-.8799-.88415-1.5356-.50442-1.1132.02814-1.46871-2.68813-1.42087-8.16123-1.6971-13.41555a65.53065,65.53065,0,0,0-1.6381-10.71924s-1.88876-6.02938-2.37476-8.6594S36.01609,59.06764,36.01609,59.06764Z"/>
        <path class="28f22511-ab43-4eda-ab93-714d730c3653" d="M39.29978,59.02353a19.25365,19.25365,0,0,0,1.95571,9.07559A31.02283,31.02283,0,0,1,43.3467,81.94239c-.02762.43738.68358.2974.70639-.06384a35.65479,35.65479,0,0,0-.97229-10.89091,24.78536,24.78536,0,0,0-1.47228-3.948,19.38286,19.38286,0,0,1-1.60235-8.08c-.00219-.4383-.70819-.29713-.70639.06384Z"/>
        <path class="28f22511-ab43-4eda-ab93-714d730c3653" d="M48.99361,90.60043c-.06157-5.8886-2.624-10.02628-3.8783-15.51782-1.214-5.31523-.81361-11.12341-.69307-16.52358.00395-.17695-.57528-.485-.57631-.43874-.12049,5.3979-.50366,11.2069.69306,16.52358,1.216,5.40213,3.81812,9.76171,3.87831,15.51782.00189.18075.57673.47867.57631.43874Z"/>
        <path class="28f22511-ab43-4eda-ab93-714d730c3653" d="M46.66339,93.87905c.01921,2.311.97279,4.18811,1.59666,6.37164.72054,2.5219.28592,5.12914,1.04425,7.62668.07636.2515.81978.23665.72848-.064-.67291-2.21622-.26979-4.48945-.78739-6.71946-.57018-2.4565-1.81183-4.57369-1.8334-7.169-.00238-.28665-.75088-.321-.7486-.04582Z"/>
        <path class="28f22511-ab43-4eda-ab93-714d730c3653" d="M53.54616,112.081c.50931-3.20378-1.38226-5.74944-1.84135-8.88913-.49977-3.41785.27779-6.8382-.072-10.24907a43.99932,43.99932,0,0,0-2.08332-8.74986c-2.94838-9.27335,1.05715-.63115,1.38523,2.34568.03288.29833.75537.48085.71866.14773-.34941-3.17037-1.98958-5.7829-3.43494-8.5852-.09325-.1808-.706-.45519-.7036-.08229.03922,6.0794,3.67879,11.5112,3.46047,17.78651a36.56465,36.56465,0,0,0,.15364,8.03285c.5115,2.75877,2.15245,5.24,1.69857,8.095-.0453.285.66278.49924.71866.14773Z"/>
        <path class="ca2b84e1-ea83-4c44-b339-26a27148e7dd" d="M51.2742,56.61129s-4.89755,1.13059-6.05349,1.25161c0,0,.25723,2.17663.38653,4.25725a69.85515,69.85515,0,0,0,1.39718,7.3969s1.05268,2.5795,1.55473,4.23,1.41854,5.01053,1.41854,5.01053.70007,2.435.89589,2.83838a37.87241,37.87241,0,0,1,1.11779,4.98572,34.617,34.617,0,0,0,1.15938,4.421,16.03041,16.03041,0,0,1,1.045,4.77949c-.08056,1.8079,1.56011,4.44778,1.56011,4.44778s1.476,2.99637,2.39436,5.16684c0,0,.00638-5.98709-1.08521-8.29142s-1.442-7.4337-1.442-7.4337a55.68905,55.68905,0,0,0-.84228-8.27444c-.65109-2.52246-2.13862-7.05294-2.30567-9.47024a60.23319,60.23319,0,0,1-.58965-7.095A73.188,73.188,0,0,0,51.2742,56.61129Z"/>
        <path class="c0081b3a-2810-446a-b08b-6df62362bf7b" d="M9.44734,59.73235a4.36709,4.36709,0,0,0-.47307,2.7491"/>
        <polygon class="dd5d73b1-6223-4a6a-9106-8dce4b106986" points="81.206 45.683 81.495 46.517 77.457 47.581 77.242 45.934 81.206 45.683"/>
        <polygon class="a19a7286-9c61-4cbc-82a0-96a3fb552b66" points="80.97 42.963 81.007 43.707 73.055 45.4 73.288 43.135 80.97 42.963"/>
        <path class="55dcd6a7-3eee-486b-aa84-c7bd05768825" d="M73.73029,39.12919c-5.08,1.53028-10.17319,3.32528-15.36862,4.42091-5.48988,1.15773-11.00183-.42154-16.31865.80175-2.29492.528-4.46648,1.6375-6.778,2.181a35.59618,35.59618,0,0,1-11.17285.43682c-3.59709-.26042-6.22053.75143-9.41555,2.38154-.26574.13558-.02493.32342.18219.21775a19.18978,19.18978,0,0,1,10.68994-2.14465,30.211,30.211,0,0,0,5.31622.07791c5.08647-.42763,10.02309-3.23717,15.06584-3.14507,4.32323.079,8.1863.37622,12.5-.54913,5.2-1.1155,10.28033-2.88814,15.36862-4.42092.26033-.07842.19543-.33761-.06911-.25792Z"/>
        <polygon class="6d54e332-5c23-48ff-a85f-a2e735aa6cf8" points="81.144 39.052 80.256 39.794 73.3 41.204 75.599 38.256 81.144 39.052"/>
        <path class="a19a7286-9c61-4cbc-82a0-96a3fb552b66" d="M6.43317,46.53986A12.6834,12.6834,0,0,0,5.062,48.87124c-.10769.55513.601.43416.601.43416s-.17053.65413-.2245.76364a9.83941,9.83941,0,0,0,.14661,1.381l.55041.03042s.34359.6604-.22951.768.31265.64412.31265.64412a.64308.64308,0,0,1-.34406.86057c-.60785.34052.91933.79306,1.15492.59912s.11867,1.19145-.31008.88874-.54146,1.11474.12593.96215a5.74671,5.74671,0,0,1,.00328,2.25043l1.04309-.267-.49066.74927a.85282.85282,0,0,0,.07438,1.06676,24.94,24.94,0,0,1,1.4988,2.47877s.20384.5605,3.2698-.68894a14.845,14.845,0,0,0,3.57223-1.12c.743-.55394,5.81607-.92433,5.81607-.92433s2.63408-.31214,5.1288-.44293,7.93464-.19037,11.95621-.61886S52.42428,56.24,52.42428,56.24a32.42994,32.42994,0,0,0,5.40332-1.08125,12.0562,12.0562,0,0,1,4.00139-.556A30.64983,30.64983,0,0,0,68.48411,53.57a9.19032,9.19032,0,0,1,2.698-.38546A18.29827,18.29827,0,0,0,74.925,52.63s1.44986-.28677,3.45115-.80738l2.35246-.3079,1.22812-1.76311L44.49193,47.3434Z"/>
        <path class="764aaa14-cffd-4469-9d83-60d45b9b8eb7" d="M6.8956,50.073s3.98328-.9505,5.00293-.6548c0,0-3.59291.65418-4.5466,1.33078s1.0856,1.268,1.0856,1.268a1.87216,1.87216,0,0,0-.11993,1.4258s5.54762-1.64573,7.4168-.48027c0,0-5.88118.034-7.48718,1.3478a3.544,3.544,0,0,1,.45411,1.5959,8.26816,8.26816,0,0,1-.40048,1.156s2.35582-.7375,3.13436-.41023-3.18108,1.4586-3.18108,1.4586,1.27937.8748,1.19321,1.62178,3.60079-.5939,8.43867-1.10449,13.321-1.7435,13.321-1.7435a80.7898,80.7898,0,0,0,10.41768-.50518C45.22551,55.78527,57.034,53.2588,57.034,53.2588s17.671-3.17118,24.92278-3.50723l.08107-2.28813-.91762-.14932.3746-.79743-3.19789.26887A4.8731,4.8731,0,0,1,81.206,45.68273l-.19876-1.97608-6.4417.873a15.57393,15.57393,0,0,1,6.40426-1.61654s-.50311-.41313-.03744-.7435-.44209-1.31919-.44209-1.31919-.65935-.692-.23467-1.10685l-6.15123.8051a44.39509,44.39509,0,0,1,6.39408-1.46554c1.7263-.07627.04454-.57461.04454-.57461s-.38785-.21866.42715-.62469-.88326-.57292-.88326-.57292-.32267-.40681.77509-.93966-2.69676-.001-2.69676-.001-10.54141.821-13.46467,2.091-8.02486,1.21466-9.23314,1.2742-4.02258-.098-12.97878,1.53438c0,0-12.86461,1.384-13.81127,2.30865s-9.20208,1.07094-9.20208,1.07094a16.43779,16.43779,0,0,0-5.58205,1.19771A7.31066,7.31066,0,0,1,9.20943,46.31a6.68665,6.68665,0,0,0-2.77626.22991s-.196.657,1.05679,1.31752C7.49,47.85738,6.40385,49.07776,6.8956,50.073Z"/>
        <path class="55dcd6a7-3eee-486b-aa84-c7bd05768825" d="M16.52659,51.482c1.77153-.1351,3.37246.66661,5.12285.60882,2.27559-.07513,4.15816-1.78632,6.54043-1.13233.32418.089.83661-.302.36438-.43165a6.30623,6.30623,0,0,0-3.77149.20935A10.64551,10.64551,0,0,1,19.528,51.304a12.35422,12.35422,0,0,0-3.01751-.30734c-.45485.03469-.44694.52064.01615.48532Z"/>
        <path class="55dcd6a7-3eee-486b-aa84-c7bd05768825" d="M33.06806,50.661c3.12461-.242,5.75659-1.9591,8.74451-2.83722a32.44359,32.44359,0,0,1,13.41588-.941c.31147.03964.72583-.51188.27475-.5693a33.75533,33.75533,0,0,0-10.68314.21739c-3.91075.748-7.56246,3.2576-11.47725,3.56079-.30041.02326-.71628.60349-.27475.56929Z"/>
        <path class="55dcd6a7-3eee-486b-aa84-c7bd05768825" d="M49.74981,49.74947c2.049,1.0078,3.3338-.01146,5.36314-.45435,3.04664-.6649,5.21933-.27317,8.2017-1.54308a7.47818,7.47818,0,0,1,6.28774-.38006c2.3691.72626,4.23389.44471,6.71725.05629.04352-.00681-.03257-.74491,0-.75-2.21789.3469-4.12817.78488-6.28.17187-2.88786-.8227-3.685-1.14246-6.725.1519-2.67151,1.13746-4.64667.84653-7.43026,1.322-2.25572.38532-3.87421,1.78714-6.13458.6754.09452.04649-.10356.69907,0,.75Z"/>
        <path class="55dcd6a7-3eee-486b-aa84-c7bd05768825" d="M46.54,50.70334c-2.48042.26849-4.73631,1.40863-7.18394,1.933a46.114,46.114,0,0,1-10.36885,1.20924c-2.80682-.0443-5.65033-.5084-8.43042.073-2.4468.51173-4.42633,2.47657-6.92126,1.43046.08442.03539-.094.7106,0,.75,2.35433.98716,3.88106-.64622,6.11233-1.27212,2.99974-.84146,6.18551-.27967,9.23935-.23136a45.71044,45.71044,0,0,0,9.42365-1.027c2.74651-.53037,5.38282-1.818,8.12914-2.11524.03218-.00348-.02108-.74771,0-.75Z"/>
        <path class="55dcd6a7-3eee-486b-aa84-c7bd05768825" d="M13.53282,49.19914a24.17192,24.17192,0,0,0,5.7165-1.23858,13.72353,13.72353,0,0,1,6.09218-.77819c1.4543.216,2.82921.70981,4.32435.7888,3.49435.18462,6.9683-.15588,9.91964-1.83457,2.96247-1.685,4.94587-3.11225,8.2509-2.513,1.39954.25376,2.63168.75221,4.0682.883a13.25052,13.25052,0,0,0,4.83593-.46814c5.159-1.4804,10.4715-2.47291,15.53268-4.38321.34748-.13116.42748-.61636-.04155-.43933-3.6072,1.36151-7.17592,1.5187-10.80653,2.52-2.77336.76488-4.33885,2.159-7.59395,2.28659-4.00113.15677-7.41617-2.2007-11.36012-.46775-1.12922.49617-1.62163,1.23566-2.63741,1.78216-4.35088,2.34083-8.44357,2.38054-13.171,1.59352-1.872-.31164-3.12538-.9484-4.97948-.50478-2.6955.64493-4.96149,2.08542-7.856,2.24622-.25749.01431-.72314.551-.29436.52721Z"/>
        <path class="55dcd6a7-3eee-486b-aa84-c7bd05768825" d="M36.57594,39.10192c6.31809-1.31,12.79013-1.35737,19.13945-2.58316,3.12135-.6026,6.04852-1.51394,9.19806-1.6429a34.74669,34.74669,0,0,0,7.87326-1.1417c.04841-.01283-.26553-.64213-.46343-.5897-3.58173.949-6.81785.5399-10.331,1.00837-2.20467.294-4.52137,1.35-6.74033,1.77623-6.35413,1.22053-12.81964,1.27286-19.13945,2.58317-.03664.00759.25682.63252.46342.58969Z"/>
        <path class="55dcd6a7-3eee-486b-aa84-c7bd05768825" d="M17.24176,38.40288c3.96974-.49754,7.137-1.66243,11.25857-1.56736a53.82109,53.82109,0,0,0,12.38822-.79027c4.50185-.92977,8.735-2.75345,13.30147-3.44258,4.77234-.72021,9.53886.29955,14.23821-.52879.49391-.08706.16163-.45417-.20245-.39-4.64963.81957-9.52535-.18287-14.23821.52878-3.99942.60392-7.728,2.05449-11.63438,3.02567-5.78035,1.43707-10.96544.5863-16.73533.89487-2.977.1592-5.59837,1.50616-8.57855,1.87967-.49915.06256-.15954.43537.20245.39Z"/>
        <path class="55dcd6a7-3eee-486b-aa84-c7bd05768825" d="M26.6945,34.09041c7.10616-1.45652,14.36125-1.40859,21.48636-2.93645A39.32706,39.32706,0,0,1,59.8278,30.0626c2.83523.22189,5.27107.58105,8.05717-.1596.09241-.02456-.2148-.67512-.42194-.62-3.872,1.02931-7.43117-.09339-11.31289-.01739a43.94248,43.94248,0,0,0-8.39122,1.26835c-7.13535,1.5435-14.37414,1.47869-21.48636,2.93645-.08112.01662.20611.66429.42194.62Z"/>
        <path class="55dcd6a7-3eee-486b-aa84-c7bd05768825" d="M10.67831,33.35282c3.88353-1.003,7.94383-.492,11.81507-1.43776,3.96215-.96792,7.56153-2.72636,11.65214-3.42256a108.34686,108.34686,0,0,1,11.3362-1.34236c4.67556-.29542,9.38167-.18228,14.04373-.68356,3.75139-.40336,7.76793-2.3878,11.47219-2.37073.14658.00067.82556-.14983.36347-.152-4.86463-.02241-9.41671,2.24482-14.33657,2.60505-5.606.41047-11.20336.30711-16.79888.94842a89.28718,89.28718,0,0,0-13.37529,2.50583c-5.53706,1.50953-11.18222,1.89454-16.70915,3.32195-.29431.076.42431.05681.53709.02768Z"/>
        <path class="55dcd6a7-3eee-486b-aa84-c7bd05768825" d="M7.051,25.04888c1.959.466,1.80407-.25695,3.44012-1.06277a6.50491,6.50491,0,0,1,3.85475-.88582c1.48648-.02248,2.94116-.04967,4.42728-.14584,1.63349-.10571,2.73971.39178,4.22419.48354,2.61286.16149,4.79716-.89134,7.32355-1.13228,3.41595-.32576,7.2505.35375,10.68072.53907-.008-.00043.01916-.749,0-.75-3.4828-.18816-7.20612-.82771-10.68072-.53907-2.53232.21037-4.687,1.40427-7.32355,1.13228-1.207-.12452-2.07079-.55209-3.34394-.59662-1.63227-.05709-3.65356.21218-5.30753.25892a7.63769,7.63769,0,0,0-3.85475.88582c-1.412.69519-1.60752,1.49872-3.44012,1.06277.051.01214-.06167.73533,0,.75Z"/>
        <path class="55dcd6a7-3eee-486b-aa84-c7bd05768825" d="M56.87327,20.75422c1.22507-1.87878,3.23877-1.39871,5.0384-.6822a10.20818,10.20818,0,0,0,6.42341.46334c.054-.011-.04324-.74122,0-.75a10.19307,10.19307,0,0,1-6.42341-.46334c-1.79655-.71529-3.81062-1.20074-5.0384.6822-.116.17784.11261.57729,0,.75Z"/>
        <path class="55dcd6a7-3eee-486b-aa84-c7bd05768825" d="M42.473,18.02444c-5.737.70571-1.9421-.78406,1.06235-1.27595,1.91645-.31377,2.91447.05477,4.749.37378,1.10306.19183,4.44724-.5692,5.3469.20583,2.99872,2.58333-5.375,1.44166-6.68175,1.19462-3.2631-.61691-5.11187,1.829-8.59236.56035-2.10125-.7659-2.64642.077-4.59356-.043-1.48807-.09172-3.12163.00521-1.4446-1.97653,1.45494-1.71928,8.61439-1.97953,10.79309-2.20209,4.05749-.41449,7.81771,1.07265,11.82731.61946,2.88443-.326,6.6535-.10059,9.31948-1.07652.08552-.0313-.07562-.72232,0-.75-1.92248.70375-4.48275.54664-6.54674.78836a27.41231,27.41231,0,0,1-6.78135.32754c-5.75474-.75156-12.02758-1.02969-17.63419,1.17943-1.38846.54708-2.23163.97571-2.07285,2.41867.31868,2.89618,3.44165.53427,5.28437.66407,2.55.17964,3.35881,2.10026,6.15386,1.12158,2.82771-.99012,2.75236-1.053,5.74772-.35532,1.57752.36741,6.03093.86542,6.24027-1.571.17382-2.023-2.167-1.69477-3.69193-1.75347-2.311-.089-4.50087-.87859-6.78877-.6-1.0971.13359-4.89507.56131-5.31231,1.74787a2.36485,2.36485,0,0,0,0,.75c1.05379.77592,2.3994.552,3.61611.40235.03571-.00439-.02464-.747,0-.75Z"/>
        <text class="b316eac4-ef97-4460-9971-8bcb09f08996" transform="translate(24.96203 37.80258) rotate(-9.22778)">0<tspan class="80e6d354-9c27-4e0e-93d6-ed0454897d93" x="14.07324" y="0">-</tspan><tspan x="22" y="0">3</tspan><tspan class="0e09560f-c636-4c53-a539-a36a7a48f20f"><tspan x="-18.59082" y="18">YEARS OLD</tspan></tspan></text>
      </g>
    </g>
  </g>
</svg>
