<svg xmlns="http://www.w3.org/2000/svg" viewBox="0 0 137.03399 196.83412">
  <defs>
    <style>
      .\35 57e05de-37c8-4046-90d6-48bf68966f45 {
        fill: #68401e;
      }

      .\33 72d4047-2f62-4269-905a-57c7c8ddba7c, .\33 d8950ff-dcfa-4fa6-9538-4d958aa9460f, .\35 57e05de-37c8-4046-90d6-48bf68966f45, .\39 3c1348e-e2b7-4bd3-a3b0-311bb5f24963, .bcb559a2-52b3-4124-ab39-1451400c114a, .debaf578-2bcf-4abb-9320-f902a165bc12 {
        stroke: #231f20;
      }

      .\30 88b611b-cb44-4012-9972-a0d1c1c787d8, .\31 fc951a3-32af-4235-a917-34d3ae1d601f, .\33 2167e35-82a0-444b-9674-295d0f98915d, .\33 72d4047-2f62-4269-905a-57c7c8ddba7c, .\33 d8950ff-dcfa-4fa6-9538-4d958aa9460f, .\35 57e05de-37c8-4046-90d6-48bf68966f45, .\39 3c1348e-e2b7-4bd3-a3b0-311bb5f24963, .bcb559a2-52b3-4124-ab39-1451400c114a, .debaf578-2bcf-4abb-9320-f902a165bc12 {
        stroke-miterlimit: 10;
      }

      .\30 88b611b-cb44-4012-9972-a0d1c1c787d8, .\33 72d4047-2f62-4269-905a-57c7c8ddba7c, .\33 d8950ff-dcfa-4fa6-9538-4d958aa9460f, .\35 57e05de-37c8-4046-90d6-48bf68966f45, .\39 3c1348e-e2b7-4bd3-a3b0-311bb5f24963, .bcb559a2-52b3-4124-ab39-1451400c114a, .debaf578-2bcf-4abb-9320-f902a165bc12 {
        stroke-width: 0.42288px;
      }

      .\30 a67c609-8e1e-4df1-a526-240463edf432, .\33 d8950ff-dcfa-4fa6-9538-4d958aa9460f {
        fill: #c59a70;
      }

      .\30 88b611b-cb44-4012-9972-a0d1c1c787d8, .\31 a216557-e5b5-4a8c-82a9-e08cd92a26c7, .\33 2167e35-82a0-444b-9674-295d0f98915d {
        fill: #6c401d;
      }

      .\30 88b611b-cb44-4012-9972-a0d1c1c787d8, .\31 fc951a3-32af-4235-a917-34d3ae1d601f, .\33 2167e35-82a0-444b-9674-295d0f98915d {
        stroke: #000;
      }

      .\33 2167e35-82a0-444b-9674-295d0f98915d {
        stroke-width: 0.25373px;
      }

      .bcb559a2-52b3-4124-ab39-1451400c114a {
        fill: #c49a70;
      }

      .\33 72d4047-2f62-4269-905a-57c7c8ddba7c {
        fill: #6a3f18;
      }

      .\36 6584922-0edf-439e-9999-0d67f94163e5, .debaf578-2bcf-4abb-9320-f902a165bc12 {
        fill: #c39a70;
      }

      .\39 3c1348e-e2b7-4bd3-a3b0-311bb5f24963 {
        fill: none;
      }

      .\31 fc951a3-32af-4235-a917-34d3ae1d601f {
        font-size: 41.25681px;
        fill: #fff8f3;
        stroke-width: 0.42288px;
        font-family: BrandonGrotesque-BlackItalic, Brandon Grotesque;
        font-style: italic;
      }

      .\33 8a4a2a2-6331-4580-999c-5811d86c07a0 {
        letter-spacing: -0.01297em;
      }

      .\37 34c2245-235a-4882-a746-184a1a6d34f7 {
        letter-spacing: -0.00002em;
      }

      .\37 4ba8ad5-3c49-41ac-84c1-82367237e181 {
        font-size: 24.37688px;
      }
    </style>
  </defs>
  <title>3-22-sign</title>
  <g id="c36c6ff7-5d05-4de2-a5a3-1b535e02db8a" data-name="Layer 2">
    <g id="41f648fe-a1a9-4aa1-964c-bfb1e86d9f1c" data-name="Layer 1">
      <g>
        <path class="557e05de-37c8-4046-90d6-48bf68966f45" d="M58.62808,19.76892l23.347,3.73388s3.56286-11.498.48828-15.62927a28.39981,28.39981,0,0,0-8.0056-6.83537,12.07225,12.07225,0,0,0-7.01148.12375,16.20356,16.20356,0,0,0-5.73,3.48933,12.83082,12.83082,0,0,0-1.42365,4.70964Z"/>
        <path class="3d8950ff-dcfa-4fa6-9538-4d958aa9460f" d="M74.34149,22.40852l7.63358,1.09428,2.05185-10.3461s.15172-3.26281-1.56357-5.28317-5.52273-5.69421-5.52273-5.69421S74.72755.10718,69.8526.21555s-6.60678,5.15164-6.60678,5.15164S61.92025,8.59344,66.15813,10.299a17.11389,17.11389,0,0,1,6.00628,3.66536S75.49369,17.73517,74.34149,22.40852Z"/>
        <path class="0a67c609-8e1e-4df1-a526-240463edf432" d="M61.44447,16.856c.24314.98136-.23459,2.00759-.20933,3.00374a.63471.63471,0,0,0,1.26864,0c-.02891-1.14033.44717-2.19813.164-3.341a.63487.63487,0,0,0-1.22333.33725Z"/>
        <polygon class="088b611b-cb44-4012-9972-a0d1c1c787d8" points="136.005 36.402 136.586 34.725 128.868 33.49 128.92 36.148 136.005 36.402"/>
        <polygon class="32167e35-82a0-444b-9674-295d0f98915d" points="135.071 46.235 134.918 48.412 126.504 47.711 126.948 44.936 135.071 46.235"/>
        <polygon class="088b611b-cb44-4012-9972-a0d1c1c787d8" points="134.767 40.89 134.127 43.138 120.416 42.054 121.885 38.493 134.767 40.89"/>
        <path class="1a216557-e5b5-4a8c-82a9-e08cd92a26c7" d="M124.67386,32.24818c-9.79358.03779-19.80131.62856-29.55242-.46312a57.95292,57.95292,0,0,1-14.9876-3.695c-2.61079-1.03691-5.046-2.36218-7.8887-2.60891-3.73418-.32411-7.5811.424-11.34319.33513a49.17046,49.17046,0,0,1-16.73321-3.17843c-3.14616-1.22344-6.08914-2.80091-9.49225-3.205-3.57179-.42409-7.17967.293-10.67266.94986-.328.06168-.622.45858-.1123.36272,6.13617-1.15392,11.54158-1.21365,17.40608,1.25871a50.3462,50.3462,0,0,0,10.62506,3.33542c7.9956,1.45,16.949-.93264,24.53056,1.75733,7.42328,2.63382,14.10213,4.88954,22.08846,5.376,8.579.52257,17.24532.18572,25.83554.15257.25071-.001.78878-.37924.29663-.37734Z"/>
        <path class="088b611b-cb44-4012-9972-a0d1c1c787d8" d="M11.83964,11.8147S8.9354,14.08636,8.49341,14.93465s.76541.99345.76541.99345-.59156.97855-.73182,1.13014a16.64125,16.64125,0,0,0-.42744,2.31l.87785.31442s.239,1.23633-.74206,1.13483.19673,1.195.19673,1.195a1.08779,1.08779,0,0,1-.97238,1.2297c-1.14965.2594,1.10873,1.72874,1.58414,1.52774S8.66243,26.759,8.113,26.06167s-1.41489,1.54678-.25921,1.62079c0,0-.346,2.88129-1.07858,3.65067l1.82.06943-1.15647.97862a1.44256,1.44256,0,0,0-.39319,1.76559A42.18625,42.18625,0,0,1,8.282,38.888s.06058,1.007,5.63384.45775c0,0,4.86018.44484,6.33181-.09551s9.876,1.30242,9.876,1.30242,4.42152.76254,8.5297,1.752,12.95778,3.51295,19.68514,4.75508,23.40413,2.63485,23.40413,2.63485a54.85547,54.85547,0,0,0,9.28229.8492,20.39323,20.39323,0,0,1,6.7561,1.02558,51.8445,51.8445,0,0,0,11.28872,1.5308,15.54563,15.54563,0,0,1,4.56047.67443,30.952,30.952,0,0,0,6.33626.90351s2.48908.23332,5.98491.353l3.96284.63378,4.05161-1.30125L73.16515,31.44819Z"/>
        <path class="bcb559a2-52b3-4124-ab39-1451400c114a" d="M134.91763,48.41191s-6.91672-.37724-8.42765-1.34783c0,0,6.141.66972,8.01329.03194s-1.14957-2.579-1.14957-2.579a3.16678,3.16678,0,0,0,.88118-2.25417s-9.78815-.00339-12.25772-2.79346c0,0,9.55278,2.7774,12.78968,1.42064,0,0-.40222-2.04289.0323-2.80648a13.98533,13.98533,0,0,1,1.20614-1.68153s-4.17519.06121-5.28-.84443,5.86065-.833,5.86065-.833-1.65316-2.03469-1.15368-3.20442-6.12475-.77126-14.21531-2.27346S98.77708,25.658,98.77708,25.658s-11.01089-3.42713-17.13565-4.19839-26.48909-2.362-26.48909-2.362-30.181-3.36895-42.10167-6.31677L11.81717,16.452l1.416.68409-.9915,1.11261,5.3149,1.10425a8.24292,8.24292,0,0,1-5.24832.3871l-.62946,3.3,10.86575,1.68691a26.34348,26.34348,0,0,1-11.16314-.46329s.61682.9122-.29739,1.22362.08147,2.352.08147,2.352.73585,1.43971-.15257,1.90779l10.362,1.6572s-8.238.00453-11.07391-.70326-.349.91028-.349.91028.52359.54137-.9935.80721,1.15627,1.35441,1.15627,1.35441.32727.815-1.70939,1.15034,4.37231,1.30058,4.37231,1.30058,17.48837,3.74594,22.84014,3.09456,13.59739,1.8955,15.58531,2.3809,6.47544,2.0963,21.78419,3.76307c0,0,21.52663,3.95194,23.507,2.90854s15.437,2.69553,15.437,2.69553,5.43747,1.43633,9.62819.74643a12.36618,12.36618,0,0,1,7.79368,1.58647,11.3108,11.3108,0,0,0,4.61246.96436s.63429-.97092-1.079-2.64536C132.88675,51.7183,135.23567,50.26255,134.91763,48.41191Z"/>
        <path class="1a216557-e5b5-4a8c-82a9-e08cd92a26c7" d="M21.6992,18.503c7.77513.0777,15.07557,3.84512,22.88231,3.3721,3.99064-.2418,7.72955-.87131,11.77515-.54652,4.96305.39846,9.92012,1.05548,14.82807,1.87991,8.74984,1.46978,17.23819,3.84587,25.82951,6.00591a101.62174,101.62174,0,0,0,11.29133,2.2992c5.27839.70535,11.20114-.40395,16.25312,1.122.62952.19014,1.19346-.46616.38769-.70954-4.24552-1.28237-8.46682-.48622-12.8482-.78219a83.6741,83.6741,0,0,1-14.69625-2.639C88.18587,26.18771,79.11015,23.681,69.707,22.1949c-7.4037-1.17013-14.9425-2.31583-22.41976-1.42479-8.84743,1.05431-16.78876-2.94-25.53493-3.02737-.76271-.00762-.8354.7524-.05315.76022Z"/>
        <polygon class="32167e35-82a0-444b-9674-295d0f98915d" points="130.118 71.11 130.185 72.601 123.125 72.382 123.569 69.608 130.118 71.11"/>
        <polygon class="088b611b-cb44-4012-9972-a0d1c1c787d8" points="131.045 66.586 130.747 67.81 117.037 66.725 118.506 63.165 131.045 66.586"/>
        <path class="1a216557-e5b5-4a8c-82a9-e08cd92a26c7" d="M121.17807,56.83571c-9.7949.0378-19.78774.61692-29.53884-.46609a57.71318,57.71318,0,0,1-14.96869-3.69207c-2.62358-1.042-5.06484-2.36546-7.9212-2.60884-4.277-.36443-8.66593.49872-12.98143.272a48.41205,48.41205,0,0,1-15.06247-3.11538c-3.15232-1.22584-6.10068-2.80544-9.51116-3.20787C27.61434,43.595,24.0035,44.3212,20.5,44.98c-.46564.08756-.32026.5976.13708.5116,6.27058-1.1792,11.42965-1.234,17.36558,1.26851a50.46941,50.46941,0,0,0,10.644,3.33833c7.97522,1.44512,16.95179-.92867,24.51166,1.75443,7.43408,2.63846,14.12071,4.88649,22.10737,5.37891,8.584.52924,17.25454.18276,25.84912.14959.42226-.00163.56243-.54762.06327-.5457Z"/>
        <polygon class="557e05de-37c8-4046-90d6-48bf68966f45" points="133.211 60.328 131.413 61.103 119.455 60.041 124.603 56.368 133.211 60.328"/>
        <path class="088b611b-cb44-4012-9972-a0d1c1c787d8" d="M8.46053,36.48641s-2.90424,2.27166-3.34623,3.12.76541.99346.76541.99346-.59156.97854-.73182,1.13013a16.64125,16.64125,0,0,0-.42744,2.31l.87785.31442s.239,1.23633-.74207,1.13483.19674,1.195.19674,1.195a1.08778,1.08778,0,0,1-.97238,1.22969c-1.14965.2594,1.10873,1.72875,1.58414,1.52774s-.38141,1.9891-.93084,1.29174S3.319,52.28016,4.47468,52.35417c0,0-.346,2.88129-1.07858,3.65067l1.82.06944-1.15647.97861a1.44257,1.44257,0,0,0-.39319,1.76559A42.18684,42.18684,0,0,1,4.90285,63.5597s.06058,1.007,5.63384.45775c0,0,4.86018.44484,6.33181-.09552s9.876,1.30242,9.876,1.30242,4.42152.76254,8.5297,1.752S48.232,70.48931,54.95933,71.73144,78.36346,74.3663,78.36346,74.3663a54.85656,54.85656,0,0,0,9.28229.8492,20.393,20.393,0,0,1,6.7561,1.02558,51.84476,51.84476,0,0,0,11.28872,1.53079,15.54543,15.54543,0,0,1,4.56047.67444,30.952,30.952,0,0,0,6.33626.90351s2.48908.23331,5.98491.353l3.96284.63377,2.84058-2.26737L69.786,56.1199Z"/>
        <path class="bcb559a2-52b3-4124-ab39-1451400c114a" d="M7.50867,42.43816s6.91671.37724,8.42765,1.34783c0,0-6.141-.66972-8.01329-.03194S9.0726,46.333,9.0726,46.333a3.16682,3.16682,0,0,0-.88119,2.25418s9.78816.00339,12.25772,2.79345c0,0-9.55277-2.77739-12.78967-1.42064,0,0,.40222,2.04289-.0323,2.80648A13.9849,13.9849,0,0,1,6.421,54.448s4.17519-.0612,5.28.84443-5.86065.833-5.86065.833S7.4935,58.16013,6.994,59.32987s6.12475.77126,14.21531,2.27345,22.43989,3.5888,22.43989,3.5888,11.01089,3.42713,17.13564,4.1984,26.4891,2.362,26.4891,2.362,30.181,3.369,42.10167,6.31677l1.2335-3.67118-1.416-.68409.99149-1.11261-5.31489-1.10424A8.24288,8.24288,0,0,1,130.118,71.11l.62946-3.3-10.86575-1.68691a26.3436,26.3436,0,0,1,11.16314.4633s-.61682-.91221.29738-1.22362-.08147-2.352-.08147-2.352-.73584-1.43971.15257-1.9078l-10.362-1.65719s8.238-.00453,11.07391.70325.349-.91028.349-.91028-.52359-.54136.9935-.80721-1.15627-1.35441-1.15627-1.35441-.32727-.815,1.70939-1.15033-4.37231-1.30058-4.37231-1.30058-17.48837-3.746-22.84014-3.09457-13.5974-1.8955-15.58531-2.3809-6.47545-2.0963-21.78419-3.76307c0,0-21.52663-3.95194-23.507-2.90854s-15.437-2.69553-15.437-2.69553-5.43748-1.43633-9.62819-.74642A12.36627,12.36627,0,0,1,13.073,37.45077a11.31071,11.31071,0,0,0-4.61245-.96436s-.6343.97092,1.079,2.64536C9.53955,39.13177,7.19063,40.58752,7.50867,42.43816Z"/>
        <path class="372d4047-2f62-4269-905a-57c7c8ddba7c" d="M47.4756,96.84674l15.50559,2.47981s-3.79943,15.29455-2.36065,21.10734-.05741,28.91928-.05741,28.91928a19.92194,19.92194,0,0,0-.68466,7.529c.5571,3.384-.747,9.66535-.747,9.66535a14.36518,14.36518,0,0,0,.23406,6.02814,83.62437,83.62437,0,0,1,1.68686,10.05459l-1.01205,6.32807s-.35024,3.43856.38189,3.85519.378,3.25549-1.98576,3.67622a12.93732,12.93732,0,0,1-4.9456-.29173,9.09093,9.09093,0,0,0-4.27968-.08537,4.20955,4.20955,0,0,1-3.93895-1.42872,6.963,6.963,0,0,0-2.54893-1.70564,2.58709,2.58709,0,0,1-1.52278-2.34028s-1.00092-1.85744-2.247-1.55751-1.81861-.49054-1.08682-5.06622,1.62681-13.91782,3.70959-22.57078a110.84691,110.84691,0,0,0,2.50659-18.1703s-.15866-10.68637.32-15.185S47.4756,96.84674,47.4756,96.84674Z"/>
        <path class="66584922-0edf-439e-9999-0d67f94163e5" d="M52.78573,98.40689c-.54632,2.46486-1.98589,4.03707-2.12866,6.66946-.19741,3.63972.94518,7.42359,1.2057,11.04035.51973,7.21542-1.06558,14.67538-3.55352,21.40242-.246.66527,1.01718.759,1.24742.13645a58.73259,58.73259,0,0,0,3.71362-18.91245c.08965-3.41428-.6602-6.95548-1.05849-10.33517-.46495-3.94545,1.02832-6.28664,1.82135-9.86461.15674-.70716-1.102-.79247-1.24742-.13645Z"/>
        <path class="66584922-0edf-439e-9999-0d67f94163e5" d="M53.32692,154.2319a45.52292,45.52292,0,0,0,2.08352-12.83922c.04005-4.76673-1.2487-9.42616-.88325-14.19.7087-9.23819,3.99919-18.37161,6.81957-27.12782.09993-.31023-.66735-1.143-.71432-.99713-2.8265,8.77523-6.06192,17.87743-6.81957,27.12782-.29667,3.62217.47687,7.04.754,10.63516a44.41452,44.41452,0,0,1-1.95424,16.3941c-.09491.31463.67189,1.13781.71433.99713Z"/>
        <path class="66584922-0edf-439e-9999-0d67f94163e5" d="M48.01963,158.79039c-1.07765,3.74169-.446,7.28361-.48466,11.1045-.045,4.44187-2.0068,8.44847-1.98,12.86966.00271.44741,1.13262-.06567,1.13-.49778-.02357-3.89456,1.72239-7.41853,1.95958-11.2749.26233-4.26508-.74188-8.278.47519-12.50378.15556-.54013-.98865-.0846-1.10008.3023Z"/>
        <path class="66584922-0edf-439e-9999-0d67f94163e5" d="M50.41135,191.18908c2.03543-3.45919,1.03962-7.04252.98783-10.87159-.07905-5.84321,2.08308-11.13248,3.92377-16.55775A47.32635,47.32635,0,0,0,57.36163,151.228c.35616-5.78736-1.19227-12.02886.76962-17.59013l-1.19876-.35547c.9506,5.0115,2.56259,10.25543,1.45878,15.35641-.11566.53452,1.074.95985,1.18191.461,1.12266-5.18814-.45594-10.45843-1.42507-15.56756-.07256-.38255-1.011-.88784-1.19876-.35546-1.53366,4.34739-.75809,8.58318-.6741,13.10312.10459,5.62846-.32313,11.68238-2.13421,17.01877-1.37139,4.04085-2.98313,7.98738-3.63288,12.23425-.74843,4.89187,1.32477,10.77048-1.27872,15.19509-.25738.43741.90333.93447,1.18191.461Z"/>
        <path class="debaf578-2bcf-4abb-9320-f902a165bc12" d="M73.39979,100.21263s-8.48594-.52558-10.4186-.88608c0,0-.63125,3.65329-1.42369,7.08932s-1.2971,12.66706-1.2971,12.66706.46456,4.68968.48371,7.60772-.11309,8.80784-.11309,8.80784-.0376,4.28548.08561,5.03394a64.05855,64.05855,0,0,1-.58881,8.62274,58.55767,58.55767,0,0,0-.24935,7.727s.39384,5.36056-.60753,8.25328.38752,7.96351.38752,7.96351.95012,5.56951,1.39392,9.53129c0,0,2.894-9.705,2.23378-13.96728s1.24214-12.74832,1.24214-12.74832,2.46036-9.419,2.61952-13.82274-.07084-12.46643.82255-16.46654.97688-7.27867,2.46109-11.78856A123.79916,123.79916,0,0,0,73.39979,100.21263Z"/>
        <path class="93c1348e-e2b7-4bd3-a3b0-311bb5f24963" d="M4.074,85.12805a7.38708,7.38708,0,0,0-2.09117,4.22983"/>
        <polygon class="32167e35-82a0-444b-9674-295d0f98915d" points="127.198 96.908 127.265 98.4 120.205 98.181 120.649 95.406 127.198 96.908"/>
        <polygon class="088b611b-cb44-4012-9972-a0d1c1c787d8" points="128.125 92.385 127.828 93.608 114.117 92.524 115.586 88.963 128.125 92.385"/>
        <path class="1a216557-e5b5-4a8c-82a9-e08cd92a26c7" d="M118.36153,82.66867c-9.19915.0355-18.52142.49156-27.69645-.28409a58.88551,58.88551,0,0,1-15.35189-3.28614c-3.38554-1.24043-6.44059-3.08593-10.1143-3.20987-9.58742-.32346-18.07753.7446-27.32411-2.83967-3.16239-1.22585-6.17587-2.80211-9.59177-3.20073-3.58291-.4181-7.18573.30819-10.69287.96771-.45888.0863-.3333.52095.1169.43629,6.60673-1.24241,11.81629-.983,18.05715,1.57924A49.46668,49.46668,0,0,0,45.63442,75.85c7.95306,1.464,17.07208-.92651,24.55137,1.79013,7.09476,2.577,13.56585,4.74378,21.18016,5.289,8.86351.63467,17.84468.25,26.72543.21571.31441-.00121.76544-.47806.27015-.47615Z"/>
        <polygon class="557e05de-37c8-4046-90d6-48bf68966f45" points="130.291 86.126 128.493 86.901 116.535 85.839 121.683 82.166 130.291 86.126"/>
        <path class="088b611b-cb44-4012-9972-a0d1c1c787d8" d="M5.54055,62.2846s-2.90424,2.27166-3.34623,3.12.76541.99346.76541.99346-.59156.97854-.73182,1.13013a16.64125,16.64125,0,0,0-.42744,2.31l.87785.31442s.23905,1.23633-.74207,1.13483.19674,1.195.19674,1.195a1.08778,1.08778,0,0,1-.97238,1.22969c-1.14965.2594,1.10873,1.72875,1.58414,1.52774s-.38141,1.9891-.93084,1.29174S.399,78.07835,1.5547,78.15236c0,0-.346,2.88129-1.07858,3.65067l1.82.06943-1.15647.97862a1.44256,1.44256,0,0,0-.39319,1.76559,42.18625,42.18625,0,0,1,1.23643,4.74121s.06058,1.007,5.63384.45776c0,0,4.86018.44483,6.33181-.09552s9.876,1.30242,9.876,1.30242,4.42152.76254,8.5297,1.752S45.312,96.2875,52.03935,97.52963s23.40413,2.63485,23.40413,2.63485a54.85547,54.85547,0,0,0,9.28229.8492,20.39329,20.39329,0,0,1,6.7561,1.02558,51.8445,51.8445,0,0,0,11.28872,1.5308,15.54563,15.54563,0,0,1,4.56047.67443,30.95194,30.95194,0,0,0,6.33625.90351s2.48909.23332,5.98492.353l3.96284.63378,2.84058-2.26737L66.86606,81.91809Z"/>
        <path class="bcb559a2-52b3-4124-ab39-1451400c114a" d="M4.58869,68.23635s6.91671.37724,8.42765,1.34783c0,0-6.141-.66972-8.01329-.03194s1.14957,2.579,1.14957,2.579a3.16685,3.16685,0,0,0-.88119,2.25418s9.78816.00339,12.25772,2.79346c0,0-9.55277-2.7774-12.78967-1.42064,0,0,.40222,2.04289-.0323,2.80648A13.98581,13.98581,0,0,1,3.501,80.2462s4.17519-.06121,5.28.84443-5.86065.833-5.86065.833S4.57352,83.95831,4.074,85.12805s6.12475.77126,14.21531,2.27345,22.43989,3.58881,22.43989,3.58881,11.01089,3.42713,17.13564,4.19839,26.4891,2.362,26.4891,2.362,30.181,3.36895,42.10167,6.31677l1.2335-3.67118-1.416-.68409.99149-1.11261-5.31489-1.10425a8.24292,8.24292,0,0,1,5.24832-.3871l.62946-3.3-10.86575-1.68691a26.34344,26.34344,0,0,1,11.16313.46329s-.61681-.9122.29739-1.22362-.08147-2.352-.08147-2.352-.73584-1.43971.15257-1.90779l-10.362-1.6572s8.238-.00453,11.07391.70326.349-.91028.349-.91028-.52359-.54137.9935-.80721-1.15627-1.35441-1.15627-1.35441-.32727-.81505,1.70939-1.15034-4.37231-1.30058-4.37231-1.30058-17.48837-3.74594-22.84014-3.09456S90.291,75.4344,88.30311,74.949s-6.47545-2.09631-21.78419-3.76307c0,0-21.52663-3.95195-23.507-2.90854s-15.437-2.69553-15.437-2.69553-5.43748-1.43633-9.62819-.74643A12.36622,12.36622,0,0,1,10.153,63.249a11.31071,11.31071,0,0,0-4.61245-.96436s-.6343.97092,1.079,2.64536C6.61957,64.93,4.27065,66.38571,4.58869,68.23635Z"/>
        <path class="1a216557-e5b5-4a8c-82a9-e08cd92a26c7" d="M20.03737,75.21966c2.93429.59985,5.15227,2.71007,8.01351,3.45457,3.86629,1.006,7.75428-.84216,11.38639,1.4181.12072.07512-.46866-.71257-.69376-.85265-3.3248-2.069-6.42117-.80247-10.06759-1.24074-3.46961-.417-6.06163-3.001-9.45215-3.69411.09243.01889.47843.84631.8136.91483Z"/>
        <path class="1a216557-e5b5-4a8c-82a9-e08cd92a26c7" d="M46.63131,81.79361c5.41322,1.53582,11.55541-.626,17.12789-.4282a54.67274,54.67274,0,0,1,20.625,4.97515c.33045.149,1.25709-.64656.94564-.787a55.60513,55.60513,0,0,0-17.37342-4.76987,53.42037,53.42037,0,0,0-9.42377-.11181c-3.69964.28485-7.27251,1.37972-10.95575.33473-.36153-.10257-1.22948.70647-.94563.787Z"/>
        <path class="1a216557-e5b5-4a8c-82a9-e08cd92a26c7" d="M74.41351,88.37821c3.20912,3.31887,7.727,1.2203,11.7679,2.20405,4.41423,1.07465,7.11848,1.65806,11.73521,1.00051,4.19029-.59681,6.59747-.1439,9.83307,2.50206,3.29267,2.69265,6.7069,2.76781,10.86495,3.32656-.04664-.00626.06529-1.25987,0-1.26864-4.158-.55876-7.57228-.63391-10.86495-3.32656-3.2356-2.646-5.64278-3.09887-9.83307-2.50206-4.61673.65754-7.321.07414-11.73521-1.00051-4.0409-.98376-8.55878,1.11482-11.7679-2.20406.20671.21378-.21588,1.04539,0,1.26865Z"/>
        <path class="1a216557-e5b5-4a8c-82a9-e08cd92a26c7" d="M68.38813,88.32643c-4.25632-1.0659-9.06254.01214-13.47988-.41278A78.37,78.37,0,0,1,38.981,85.16119c-4.49615-1.401-8.86265-3.51844-13.57726-4.10482-4.12441-.513-9.37287,2.19921-12.608-1.04494.20668.20726-.21615,1.05189,0,1.26865,3.10071,3.10939,7.889.6335,11.79809.97133,5.018.43366,9.63534,2.69768,14.38713,4.17842a75.25526,75.25526,0,0,0,15.02718,2.6654c4.7126.46994,9.84136-.63674,14.38.49985-.09083-.02275.10869-1.24143,0-1.26865Z"/>
        <path class="1a216557-e5b5-4a8c-82a9-e08cd92a26c7" d="M15.58587,69.92585a30.08214,30.08214,0,0,0,11.28611.48268c3.97125-.41448,6.191.3071,9.56732,2.38262a30.99553,30.99553,0,0,0,4.2623,2.2808c5.54249,2.32128,12.79022,4.19553,18.61637,2.44444,3.28688-.9879,6.24658-2.6217,9.75291-1.97889a18.156,18.156,0,0,1,5.88221,2.47834c3.92682,2.29223,7.65914,4.1169,12.30383,4.32083,4.83427.21226,9.22566-.80051,14.096.119,4.62088.87243,9.19053.624,13.85422.27872.26134-.01935,1.16431-.55163.9628-.53671A62.75806,62.75806,0,0,1,100.2186,81.451c-4.81511-.8475-9.47134.79055-14.3197.09189-8.022-1.156-13.48931-8.48317-22.09171-6.25585-2.97922.77137-5.30993,2.311-8.59994,2.36284-3.99089.06292-8.968-1.37445-12.661-2.802-3.85634-1.49071-7.12593-5.07172-11.3884-5.30153-1.92747-.10392-3.85781.50371-5.76846.65858a25.87484,25.87484,0,0,1-8.70028-.81159c-.32621-.08356-1.09108.53568-1.10321.53258Z"/>
        <path class="1a216557-e5b5-4a8c-82a9-e08cd92a26c7" d="M57.21874,64.42748c10.78139.81536,21.19775,3.93014,31.97984,5.00157,4.44129.44134,9.87318-.33391,14.07585.97459a52.97223,52.97223,0,0,0,15.24563,2.76045c.35608.00948,1.01877-.5527,1.09437-.55069a44.07212,44.07212,0,0,1-14.5821-2.50026c-4.60314-1.66657-9.86964-.75086-14.73938-1.23478-10.78225-1.07144-21.198-4.18618-31.97983-5.00156-.35219-.02664-1.03482.55519-1.09438.55068Z"/>
        <path class="1a216557-e5b5-4a8c-82a9-e08cd92a26c7" d="M26.96546,54.48061c3.33309.61656,6.21117.36376,9.52277.40793,4.31836.0576,7.66729,1.87211,11.64,3.26088a74.42585,74.42585,0,0,0,20.76882,4.0642c7.40433.37042,14.70762-.324,22.08053.85283,7.47438,1.193,14.5616,5.29549,22.03533,5.805.82449.05621.60493-1.05053-.09971-1.09857-7.434-.50678-14.57957-4.60984-22.03533-5.805C83.506,60.78619,76.19931,61.5027,68.79736,61.115a74.57092,74.57092,0,0,1-23.74221-5.2354c-2.41211-.96345-4.61534-2.08253-7.24894-2.167-3.71142-.119-7.2171.35813-10.94046-.33063-.80949-.14974-.58008.97282.09971,1.09857Z"/>
        <path class="1a216557-e5b5-4a8c-82a9-e08cd92a26c7" d="M44.51737,51.71611c6.02591.43785,11.8107,1.8973,17.69233,3.193a121.43571,121.43571,0,0,0,17.84215,2.34539c6.20543.433,12.39922.94623,18.27542,3.15023,5.02843,1.886,9.49833,4.41315,14.99752,4.36039.49727-.00477-.29049-.93147-.63916-.92812-6.28045.06025-11.41777-3.39923-17.25285-5.16151-5.19542-1.5691-10.634-1.97327-16.02008-2.34911a118.20032,118.20032,0,0,1-16.96081-2.15282c-6.17906-1.33923-12.24544-2.92571-18.57368-3.38554-.47828-.03475.29.90276.63916.92813Z"/>
        <path class="1a216557-e5b5-4a8c-82a9-e08cd92a26c7" d="M18.03926,42.92308c7.79364.07789,15.04311,3.79761,22.8649,3.36717,3.91043-.21519,7.71471-.8602,11.66311-.5434,4.98471.39995,9.964,1.06621,14.89432,1.89518,8.74969,1.47116,17.23807,3.84584,25.82952,6.00592a92.527,92.527,0,0,0,12.99145,2.49918c4.572.47337,10.10642-.419,14.48654.904.34262.10349,1.097-.231,1.20865-.19729-3.82532-1.15545-6.913-.56072-10.97136-.686a78.504,78.504,0,0,1-16.63955-2.75319c-9.52069-2.3937-18.90525-4.96791-28.62906-6.45256-6.59453-1.00686-13.52572-2.17172-20.207-1.45652-6.1358.6568-11.05819-.0602-16.89669-1.43731a44.88443,44.88443,0,0,0-9.98-1.40223c-.24825-.00248-1.39657.24922-.6148.257Z"/>
        <path class="1a216557-e5b5-4a8c-82a9-e08cd92a26c7" d="M17.07379,27.76065c1.78271,1.61887,3.377.96906,5.411.23558a8.39706,8.39706,0,0,1,6.60935-.15909,57.41922,57.41922,0,0,0,7.695,2.15323A13.31714,13.31714,0,0,1,42.848,32.49515c3.71728,2.39239,8.46463,1.10827,12.49806,1.83747,6.00583,1.08579,12.10452,4.1595,17.84044,6.206-.1255-.04477.14234-1.21785,0-1.26864-5.59642-1.99669-11.28635-4.59452-17.0631-5.99785-4.25892-1.0346-9.29693.441-13.2754-2.04559-1.88369-1.17734-2.81135-1.98959-5.16752-2.37449a49.81581,49.81581,0,0,1-7.8395-2.00616c-2.96534-.99236-4.4104-1.17724-7.35622-.11826-2.01064.7228-3.6531,1.36073-5.411-.23558.20524.18638-.21565,1.07281,0,1.26864Z"/>
        <path class="1a216557-e5b5-4a8c-82a9-e08cd92a26c7" d="M99.92946,44.79313c2.797-2.54226,5.98481-.66122,8.49837,1.3205a17.11345,17.11345,0,0,0,10.19243,3.84507c-.02719-.00236.046-1.26465,0-1.26865A17.16283,17.16283,0,0,1,108.42783,44.845c-2.51436-1.98235-5.69383-3.86963-8.49837-1.3205-.21548.19585.20507,1.08225,0,1.26865Z"/>
        <path class="1a216557-e5b5-4a8c-82a9-e08cd92a26c7" d="M77.53288,33.37856c-2.08109-.18739-4.34913-.6474-5.66977-2.39408v1.26865c1.75511-2.4231,11.33631-.30225,13.74067,1.06306a23.56728,23.56728,0,0,0,5.695,2.72017c2.14361.58021,4.8694.86983,6.20808,2.84571V37.61343c-.36928,4.213-6.65856,2.31289-9.18276,1.164-1.73809-.79109-2.94126-2.171-4.53231-3.10168-2.11659-1.23814-3.55206-.57657-5.87957-.14235-4.28257.799-5.72594-1.34294-8.78558-3.64545-3.02881-2.27931-8.27765.6409-10.0054-3.32273v1.26864c.81176-5.09571,9.58052-2.61654,13.12837-2.27055,5.4014.52675,10.93167,1.039,15.89482,3.39537,2.04217.96955,3.93749,2.24425,6.0178,3.13544,2.3816,1.02026,4.47988.953,6.999,1.35381,2.01747.321,4.01151.7644,6.03927,1.09183,2.67973.4327,5.02656,1.87505,7.763,1.51423.06394-.00843-.04527-1.26267,0-1.26864-2.4191.319-3.87083-.76722-6.15333-1.2864-1.74649-.39726-3.5609-.37461-5.31606-.74755-3.4059-.72369-6.785-.73556-10.00579-2.25092-3.62752-1.70672-6.81929-3.749-10.77155-4.71594a84.24413,84.24413,0,0,0-12.39171-1.66867c-3.10353-.2822-11.744-2.34226-11.2102,3.08367.461,4.68628,6.86182,1.77314,9.5916,3.57053,2.6799,1.76456,3.47708,4.19861,7.177,4.29713,3.72647.09922,5.35565-1.92061,8.668.544,2.12008,1.57745,13.07864,7.47284,12.95981,1.0851-.05173-2.78121-3.14752-3.08931-5.47323-3.74491-3.26328-.9199-5.75546-3.1208-8.92048-4.00205-2.19521-.61123-9.89426-1.84275-11.25447.03515a3.50447,3.50447,0,0,0,0,1.26865c1.32812,1.75657,3.59025,2.20683,5.66977,2.39408-.02851-.00257.04734-1.26438,0-1.26865Z"/>
        <text class="1fc951a3-32af-4235-a917-34d3ae1d601f" transform="matrix(0.99107, 0.13338, -0.13338, 0.99107, 33.37124, 56.80448)">3<tspan class="38a4a2a2-6331-4580-999c-5811d86c07a0" x="19.80273" y="0">-</tspan><tspan class="734c2245-235a-4882-a746-184a1a6d34f7" x="33.1709" y="0">22</tspan><tspan class="74ba8ad5-3c49-41ac-84c1-82367237e181"><tspan x="-23.44238" y="30.44727">YEARS OLD</tspan></tspan></text>
      </g>
    </g>
  </g>
</svg>
