<svg xmlns="http://www.w3.org/2000/svg" viewBox="0 0 69.47481 51.49685">
  <defs>
    <style>
      .fe301d2d-34d1-4a93-a24d-78aaa8ab8f46 {
        fill: #ee282f;
      }

      .f268f34c-5e21-4e75-87e0-da37c889a77c {
        fill: #f48695;
      }

      .\30 2807adb-a7a3-49c9-958f-f77b598ba2fa {
        fill: #fdd159;
      }

      .b58a3731-78ef-48a5-875b-e45239d16345 {
        fill: #b5b6ba;
      }

      .d87bc505-6761-4e83-bace-6f715f1c33c0 {
        fill: #d5d6da;
      }

      .dd7e809b-d38a-4016-9731-fc53f42aea99 {
        fill: #feebad;
      }

      .\32 e1261ca-68fa-4d25-ab14-e8ae6079d9ba {
        fill: #f6c24d;
      }
    </style>
  </defs>
  <title>love-lightbulb</title>
  <g id="2c0ce616-1997-4074-99c5-15dd0340dd0e" data-name="Layer 2">
    <g id="9f572c33-c770-49f5-bf5f-f264ce5c4aaa" data-name="Layer 1">
      <g>
        <g>
          <circle class="fe301d2d-34d1-4a93-a24d-78aaa8ab8f46" cx="14.73297" cy="23.51585" r="14.72896"/>
          <circle class="fe301d2d-34d1-4a93-a24d-78aaa8ab8f46" cx="39.42164" cy="14.73297" r="14.72896"/>
          <path class="fe301d2d-34d1-4a93-a24d-78aaa8ab8f46" d="M38.39636,50.76053,8.53713,36.87707c-2.23109-1.06022.79451-3.03965,2.97192-4.20614l17.17816-9.20282,19.65855-3.81638c2.20625-.42831,5.556-1.09695,4.59136.93295Z"/>
          <path class="f268f34c-5e21-4e75-87e0-da37c889a77c" d="M35.4255,2.03918c-3.50045,1.24527-5.06474,2.92711-6.47737,6.23643a10.99829,10.99829,0,0,1,5.18148-4.24355c6.10915-2.1733,13.398,1.59021,15.57131,7.69936.928,2.60869,1.56464,6.38666.72691,8.81536,2.22069-3.0319,2.02074-7.65329.66625-11.46076C48.92073,2.97673,41.53465-.13412,35.4255,2.03918Z"/>
        </g>
        <g>
          <path class="02807adb-a7a3-49c9-958f-f77b598ba2fa" d="M59.01541,5.235q1.34568.50087,2.69134,1.00175c.01178.12216-.01652.27767.11886.33389.44556.185.79009.55606,1.21664.73328a8.22,8.22,0,0,1,1.79727,1.34963c.67633.52314,1.10556,1.284,1.72522,1.86874a6.43412,6.43412,0,0,1,.74074,1.15432,9.77732,9.77732,0,0,1,1.41073,3.15372,12.40864,12.40864,0,0,1,.486,2.88846c.00287.344.16762.68148.07747,1.0111-.08451.309-.0452.62211-.10964.92182a9.778,9.778,0,0,1-.16618,1.46431c-.08908.24041-.24526.53812.03284.78705Q68.59482,23.109,68.153,24.315c-.14558,0-.17046.04639-.05623.14631q-.06991.17937-.13975.35884a.42163.42163,0,0,0-.32522.14964,12.61156,12.61156,0,0,0-.86124,1.37482c-.35776.46638-.66876.96729-1.07,1.40376-.48317.52563-1.02317,1.00018-1.48341,1.54046a13.45232,13.45232,0,0,1-1.43764,1.37928c-.67779.59225-1.32876,1.21416-2.026,1.78553-.45442.37239-.84872.81793-1.3013,1.19287-.29974.24831-.55653.53868-.84975.79365-.59963.5214-1.08408,1.16265-1.66762,1.7128a10.46191,10.46191,0,0,0-1.77995,2.09768c-.16023.26013-.24629.66956-.697.7023a.87789.87789,0,0,1-.38964-.03949q-4.8283-1.80009-9.65544-3.60336c-.12038-.04508-.321-.0245-.30606-.24908l8.9654,3.3311c.10674.03966.21158.08592.32069.11737.30413.08768.50008-.0838.43464-.39267-.10737-.50681-.22214-1.01238-.35062-1.51416a.58057.58057,0,0,0-.2008-.34687c-.38485-.21453-.6178-.64043-1.07917-.7476-.21875-.05081-.30122-.18529-.219-.43573.51778-1.578,1.23559-3.07417,1.88211-4.59877a2.53921,2.53921,0,0,1,.46526-.77318,2.80252,2.80252,0,0,0,.65387-1.09.59707.59707,0,0,1,.69985-.3264,2.84185,2.84185,0,0,0,1.22924.06783,4.22483,4.22483,0,0,0,2.24366-.72452c.36772-.293.85125-.33677,1.17282-.75436a1.91518,1.91518,0,0,0,.35144-2.30225c-.1753-.23931-.43282-.27245-.5967-.46116a.90431.90431,0,0,0-1.05527-.18158,7.72865,7.72865,0,0,0-2.84108,1.9705c-.22674.22407-.33113.5347-.596.71539a.91984.91984,0,0,0-.31409.38575c-.12917.2685-.344.52479-.66364.48785a7.10232,7.10232,0,0,1-1.98386-.54606c-.64171-.27943-1.29446-.54017-1.94163-.8097a.71968.71968,0,0,1-.45692-1.02337.69516.69516,0,0,0,.086-.29094c-.07261-.50841.05561-1.03532-.05192-1.52159a5.5518,5.5518,0,0,0-.37635-1.86709c-.2046-.32633-.11372-.73565-.46279-1.03171-.397-.3367-.70683-.72088-1.30064-.70266a1.76876,1.76876,0,0,0-1.36015.79652,3.40312,3.40312,0,0,0,.18025,2.78309,3.48424,3.48424,0,0,0,.24877.48381,4.58474,4.58474,0,0,0,1.2749,1.584,7.16951,7.16951,0,0,0,.70922.55318c.09861.0504.09939.19757.104.31287a9.21024,9.21024,0,0,1-.39425,2.49965,7.159,7.159,0,0,0-.404,1.39254,2.64706,2.64706,0,0,1-.12362.81664c-.28963.767-.58064,1.53353-.8563,2.30554a.3852.3852,0,0,1-.55842.26055,2.808,2.808,0,0,0-2.70615.6467c-.02508.01973-.06556.06211-.05981.07267.17852.32774-.16692.529-.19163.806a1.10962,1.10962,0,0,1-.865-.19872c-.129-.07216-.34985-.1841-.27694-.43927a7.44954,7.44954,0,0,0,.15536-2.16129,22.58191,22.58191,0,0,0-.09139-2.9144c-.07981-.56221.12053-1.14779-.121-1.68783a2.29108,2.29108,0,0,1-.14149-.84639,1.836,1.836,0,0,0,.01618-.3645c-.09243-.40892-.10378-.83151-.17745-1.24688-.097-.54669-.199-1.0942-.2674-1.64791a8.71358,8.71358,0,0,1-.21676-.99058c-.011-.66208-.177-1.30784-.20959-1.97-.02433-.49407-.03268-.98961-.0578-1.4836a3.71584,3.71584,0,0,1,.00936-1.21774,12.56267,12.56267,0,0,1,.29484-1.68783.23773.23773,0,0,0-.15457-.30445q.60846-1.66879,1.21694-3.33754a.25379.25379,0,0,0,.32767-.11008,12.98793,12.98793,0,0,1,.77843-1.27223c.25294-.40223.50565-.81036.78742-1.18594a2.32178,2.32178,0,0,1,.48586-.62322,6.34094,6.34094,0,0,0,1.97907-1.78293.14231.14231,0,0,1,.07958-.05532,4.38363,4.38363,0,0,0,1.2495-.65782,8.95143,8.95143,0,0,1,2.51979-1.09287c.59861-.16911,1.18336-.389,1.785-.54522.39575-.10274.82564.03292,1.22334-.11349a6.589,6.589,0,0,1,1.15769-.08245,3.10021,3.10021,0,0,1,1.47568.07247.86515.86515,0,0,0,.39127.0992,1.71931,1.71931,0,0,1,1.04783.14532A.54922.54922,0,0,0,59.01541,5.235ZM45.67626,12.89935a5.20738,5.20738,0,0,0-.38794,1.36608.92225.92225,0,0,0,.00057.55563,4.15125,4.15125,0,0,1,.18671.85125.718.718,0,0,0,.48033.6014q.37012.13.73512.27453a1.86821,1.86821,0,0,0,1.26925.09269,4.59453,4.59453,0,0,1,.6667-.21161,4.91785,4.91785,0,0,0,2.1504-1.15863,10.19607,10.19607,0,0,0,1.88233-1.86957,10.603,10.603,0,0,0,1.0525-1.83819,2.52306,2.52306,0,0,0,.46-1.89425c.30561-.8567-.23746-1.423-.74816-1.93679a1.40288,1.40288,0,0,0-1.1252-.39145,4.29331,4.29331,0,0,0-1.41465.34819,8.96379,8.96379,0,0,0-1.38639.62325c-.515.39869-1.02957.79918-1.525,1.22157a4.63,4.63,0,0,0-.72855.76838c-.27131.37242-.53644.76574-.79147,1.15309A4.96108,4.96108,0,0,0,45.67626,12.89935Z"/>
          <path class="b58a3731-78ef-48a5-875b-e45239d16345" d="M49.98176,49.86168c-.17991.10825-.436.07716-.5522.30195a1.3692,1.3692,0,0,0-1.16628.586,17.2739,17.2739,0,0,1-2.438.67448,3.43582,3.43582,0,0,1-2.04406-.223c-.384-.1409-.76485-.29026-1.1471-.43582.01368-.13432-.03526-.29073-.14135-.31657-.4051-.09869-.61478-.42808-.89-.68352a4.51621,4.51621,0,0,1-.93447-1.242.90728.90728,0,0,0-.4802-.48646c-.20552-.62181-.50066-1.20614-.75748-1.80645a3.88292,3.88292,0,0,0-.39051-.88743.18865.18865,0,0,1,.22853-.10784c.29059.10031.61239.03526.8799.10645.78229.20819,1.59508.1526,2.37094.35224.13952.0359.25774-.06644.39815-.00445a8.09431,8.09431,0,0,0,2.504.47137,5.337,5.337,0,0,0,1.33734.23484,1.07241,1.07241,0,0,1,.4659.01432c.63856.18611,1.30793.22031,1.96062.34283a4.7502,4.7502,0,0,1,1.08845.14577c.0846.03643.18222.067.22908-.05393.05616-.14492-.06255-.17361-.15614-.2087-.41524-.15572-.831-.31021-1.24829-.4602a.79387.79387,0,0,0-.198-.02459,3.56645,3.56645,0,0,1-.98-.12646,4.12512,4.12512,0,0,0-1.15527-.39544,13.98511,13.98511,0,0,1-1.65506-.38663,11.1783,11.1783,0,0,1-2.91131-.74663.55093.55093,0,0,0-.33133-.05069,1.22631,1.22631,0,0,1-.72035-.13956,1.40215,1.40215,0,0,0-.55707-.10392.9558.9558,0,0,1-.658-.24015c-.13161-.11778.07846-.28971.07059-.43907-.01318-.2499-.05625-.50192-.36213-.57756l-.00084-.00113c.05477-.18421.15065-.26734.34968-.16882a.91873.91873,0,0,0,.81207.07247.23142.23142,0,0,1,.16308.00784,10.07834,10.07834,0,0,0,1.58527.344c.57113.13918,1.14595.12474,1.70991.24766a13.7284,13.7284,0,0,0,2.122.30324c.31427.01817.58578.17828.881.16767a3.52613,3.52613,0,0,1,1.2782.20723,2.02091,2.02091,0,0,0,.90842.10349,1.99877,1.99877,0,0,1,1.24443.12694.45742.45742,0,0,0,.38992.07363c.05132-.021.10856-.0403.11436-.10931.00483-.05764-.04078-.08272-.08162-.09365a5.24656,5.24656,0,0,0-1.12861-.33723,3.06187,3.06187,0,0,1-.95133-.14587,3.14913,3.14913,0,0,0-1.42012-.3789,1.93986,1.93986,0,0,1-.87729-.19025c-.41679-.15223-.83194-.309-1.24946-.45916a1.05242,1.05242,0,0,0-.2939-.0698,4.86327,4.86327,0,0,1-1.13962-.182,4.40751,4.40751,0,0,0-1.06066-.35533,4.75479,4.75479,0,0,1-1.65649-.35427c-.3129-.1202-.62121-.14084-.463-.66881.13718-.45787.20039-.59759.6793-.42093a1.4857,1.4857,0,0,0,.69371.1351c.52835-.07853.99456.20425,1.51526.19515a4.98779,4.98779,0,0,1,.95355.15222c.40643.07684.825.11117,1.23938.179a6.9902,6.9902,0,0,0,1.4.19874c.53684-.02981.99714.25147,1.509.18194.33789-.04591.632.15616.94689.17052a3.72326,3.72326,0,0,1,1.061.13612c.2343.08.52719.23788.71275.16215.47228-.19274.927.32359,1.3705-.02269.01116-.00871.0429.00808.06475.014a.96286.96286,0,0,1,.7721.63268c.06508.20845.1147.41706-.06138.57009a.88072.88072,0,0,1-.71107.31936.71073.71073,0,0,0-.8695.73554.1347.1347,0,0,0,.07648.13694c.17378.0794.30707.24149.51429.25218.13469.03738.17872.16292.25246.25958a1.52524,1.52524,0,0,0-.01077.16776.70475.70475,0,0,1-.93871.78834.33993.33993,0,0,0-.43643.215c-.06851.15371-.06713.35926-.2167.45136-.17654.1087-.18919.24259-.08031.363a.74517.74517,0,0,1-.00184,1.17888l-.00031.00011c-.318-.05785-.5919-.006-.70673.3393-.07288.21915-.19306.19068-.36731.13692a9.82429,9.82429,0,0,0-1.60744-.48549,4.13069,4.13069,0,0,1-1.49579-.37559c-.107-.05936-.27984-.09514-.33282.03925-.06289.15954.10157.23089.229.27457,1.10528.379,2.164.891,3.30669,1.16254.26571.06314.412.17977.25549.46782l-.00368.00155A.5827.5827,0,0,0,49.98176,49.86168Z"/>
          <path class="d87bc505-6761-4e83-bace-6f715f1c33c0" d="M52.74305,44.81263c-.20722-.01069-.34051-.17278-.51429-.25218a.1347.1347,0,0,1-.07648-.13694.71073.71073,0,0,1,.8695-.73554.88072.88072,0,0,0,.71107-.31936c.17608-.153.12646-.36164.06138-.57009a.96286.96286,0,0,0-.7721-.63268c-.02185-.006-.05359-.02274-.06475-.014-.44353.34628-.89822-.17-1.3705.02269-.18556.07573-.47845-.08219-.71275-.16215a3.72326,3.72326,0,0,0-1.061-.13612c-.31493-.01436-.609-.21643-.94689-.17052-.5119.06953-.9722-.21175-1.509-.18194a6.9902,6.9902,0,0,1-1.4-.19874c-.41436-.06781-.83295-.10214-1.23938-.179a4.98779,4.98779,0,0,0-.95355-.15222c-.5207.0091-.98691-.27368-1.51526-.19515a1.4857,1.4857,0,0,1-.69371-.1351c-.47891-.17666-.54212-.03694-.6793.42093-.15818.528.15013.54861.463.66881a4.75479,4.75479,0,0,0,1.65649.35427,4.40751,4.40751,0,0,1,1.06066.35533,4.86327,4.86327,0,0,0,1.13962.182,1.05242,1.05242,0,0,1,.2939.0698c.41752.15019.83267.30693,1.24946.45916a1.93986,1.93986,0,0,0,.87729.19025,3.14913,3.14913,0,0,1,1.42012.3789,3.06187,3.06187,0,0,0,.95133.14587,5.24656,5.24656,0,0,1,1.12861.33723c.04084.01093.08645.036.08162.09365-.0058.069-.063.08829-.11436.10931a.45742.45742,0,0,1-.38992-.07363,1.99877,1.99877,0,0,0-1.24443-.12694A2.02091,2.02091,0,0,1,48.541,44.125a3.52613,3.52613,0,0,0-1.2782-.20723c-.29526.01061-.56677-.1495-.881-.16767a13.7284,13.7284,0,0,1-2.122-.30324c-.564-.12292-1.13878-.10848-1.70991-.24766a10.07834,10.07834,0,0,1-1.58527-.344.23142.23142,0,0,0-.16308-.00784.91873.91873,0,0,1-.81207-.07247c-.199-.09852-.29491-.01539-.34968.16882-.15473-.07345-.37126-.07069-.36481-.33109.01145-.46266.15449-.72542.44-.82312a.82044.82044,0,0,1,.64161-.07743c.06393.02806.21207-.01054.19559-.081-.062-.26541.20555-.52007-.03974-.80765a1.143,1.143,0,0,1-.30216-.87672A.55406.55406,0,0,1,40.754,39.389c.3152-.05551.64323-.09444.71126-.52322.028-.17659.07763-.28407-.10787-.42424a1.29617,1.29617,0,0,1-.22081-1.269.31675.31675,0,0,1,.29329-.19526c.217-.00925.20066-.10692.13426-.27092a1.1985,1.1985,0,0,1,.72346-1.57957c.17433-.05913.22958-.23707.37924-.31143a.99461.99461,0,0,0,.55613.34768q3.92433,1.46166,7.84714,2.92736c-.02132.02581-.04845.077-.0631.07368a7.538,7.538,0,0,1-.85554-.118,11.50382,11.50382,0,0,0-1.42582-.44758,18.60032,18.60032,0,0,1-2.68235-.73135.64667.64667,0,0,0-.22769-.06631,5.05771,5.05771,0,0,1-1.45948-.29508,21.25705,21.25705,0,0,0-2.29178-.68772.35222.35222,0,0,0-.38688.13406.582.582,0,0,0,.00737.6153c.07586.13641.18892.28732.3389.22372.23051-.09774.4014-.114.57006.09635a.24893.24893,0,0,0,.22018.06626c.234-.08486.41758.05056.61989.108a5.57718,5.57718,0,0,0,1.45789.41943,2.06679,2.06679,0,0,1,.88354.14992,4.66612,4.66612,0,0,0,1.24926.44809,8.3415,8.3415,0,0,1,1.84776.42314,1.00476,1.00476,0,0,0,.29066.09559,6.04217,6.04217,0,0,1,1.85068.40878.80962.80962,0,0,0,.25874.08331,5.06051,5.06051,0,0,1,1.92217.441c.09816.04312.29935.03331.22911.21713-.061.15961-.20939.06812-.3272.03762-.21661-.05607-.42008-.25428-.64482-.16373a.98916.98916,0,0,1-.78185-.07382.99059.99059,0,0,0-.32575-.0836,2.67409,2.67409,0,0,1-1.10978-.15984.61719.61719,0,0,0-.25782-.0841,11.34871,11.34871,0,0,1-2.40389-.20409c-.59337-.10092-1.19619-.11893-1.79011-.25543a2.50372,2.50372,0,0,0-.87793-.13067,1.41847,1.41847,0,0,1-.85283-.09911.70824.70824,0,0,0-.26016-.07328,4.38993,4.38993,0,0,1-1.3079-.22009,2.101,2.101,0,0,0-.41788-.14624c-.15964-.024-.3635-.04506-.47011.077-.1113.12737.01851.28112.11165.38887a.276.276,0,0,1,.02456.34426c-.1081.21055-.01639.2992.18293.37092a8.26293,8.26293,0,0,0,1.968.44307c.6575.06714,1.22555.46543,1.902.49325a10.6484,10.6484,0,0,1,1.47795.36479c.5913.11,1.17277.25021,1.7542.39494a10.78867,10.78867,0,0,0,1.38765.39744,4.81324,4.81324,0,0,1,1.7454.47545c.23338.126.4858.01945.72735.08132a.25367.25367,0,0,0,.27658-.20738c.049-.26706.23256-.30407.46539-.34468a1.23418,1.23418,0,0,0,1.14635-.81748c.1195-.385-.07743-.73615-.04038-1.1052l.13288.04253c.46085.24661.31773,1.19225.04609,1.51925a1.46067,1.46067,0,0,1-1.22351.69537c-.16444-.008-.15252.20085-.20319.31863-.0568.132.04536.17311.14266.22126.465.23014.54737.45133.366.95053-.11575.31861-.19275.66615-.63075.7a.62734.62734,0,0,1-.19762-.00718c-.44527-.10349-.51363-.05606-.66175.37315a.2627.2627,0,0,0,.12542.3695C52.69779,44.67212,52.75621,44.716,52.74305,44.81263Z"/>
          <path class="dd7e809b-d38a-4016-9731-fc53f42aea99" d="M54.85816,39.49086l-.13285-.04256q-1.82757-.679-3.6552-1.35791Q47.14674,36.62615,43.223,35.163a.99461.99461,0,0,1-.55613-.34768c.04155-.41106.12111-.82982.12916-1.22944.00935-.46444-.02587-.9367-.00507-1.40784a9.07224,9.07224,0,0,0-.023-.928,2.23691,2.23691,0,0,0-.18053-.72911.61462.61462,0,0,1-.05123-.36315,4.9687,4.9687,0,0,0-.0847-1.74644,8.00056,8.00056,0,0,0-.262-1.70924.93975.93975,0,0,1-.01193-.56446c.069-.23478-.11339-.46895-.11473-.68887-.00415-.67736-.23887-1.32449-.20095-2.01066.01648-.29813-.12069-.6175-.11688-.93767.00764-.641-.19875-1.25773-.20686-1.89908-.006-.47651.00444-.9536-.02267-1.43118a4.92341,4.92341,0,0,0-.13642-.499c-.05566-.36956.19193-.66535.14588-1.02805a3.86065,3.86065,0,0,1,.2442-1.684.14126.14126,0,0,1,.11126-.11244.23773.23773,0,0,1,.15464.30446,12.56267,12.56267,0,0,0-.29484,1.68783,3.71584,3.71584,0,0,0-.00936,1.21774c.02512.494.03347.98953.0578,1.4836.03261.66216.19856,1.30792.20959,1.97a8.71358,8.71358,0,0,0,.21676.99058c.06841.55371.17043,1.10122.2674,1.64791.07367.41537.085.838.17745,1.24688a1.836,1.836,0,0,1-.01618.3645,2.29108,2.29108,0,0,0,.14149.84639c.24152.54.04118,1.12562.121,1.68783a22.58191,22.58191,0,0,1,.09139,2.9144,7.44954,7.44954,0,0,1-.15536,2.16129c-.07291.25517.14794.36711.27694.43927a1.10969,1.10969,0,0,0,.86509.19872l.12258.0528c-.01492.22458.18568.204.30606.24908q4.82578,1.80687,9.65544,3.60336a.87789.87789,0,0,0,.38964.03949c.45069-.03274.53675-.44217.697-.7023a10.46191,10.46191,0,0,1,1.77995-2.09768c.58354-.55015,1.068-1.1914,1.66762-1.7128.29322-.255.55-.54534.84975-.79365.45258-.37494.84688-.82048,1.3013-1.19287.69723-.57137,1.3482-1.19328,2.026-1.78553a13.45232,13.45232,0,0,0,1.43764-1.37928c.46024-.54028,1.00024-1.01483,1.48341-1.54046.4012-.43647.7122-.93738,1.07-1.40376a12.61156,12.61156,0,0,1,.86124-1.37482.42163.42163,0,0,1,.32522-.14964,7.04832,7.04832,0,0,1-.86181,1.7172,6.49765,6.49765,0,0,1-.94231,1.19838c-.591.75128-1.35419,1.3173-1.95721,2.03625-.4274.50957-.96433.87858-1.42216,1.33818a18.65521,18.65521,0,0,1-1.5808,1.46343,24.88145,24.88145,0,0,0-2.00695,1.932c-.08891.08855-.216.06918-.30123.14339a15.13175,15.13175,0,0,0-1.31161,1.25727,4.49454,4.49454,0,0,1-.75565.78243c-.046.0312-.12069.05439-.13283.09576a3.56435,3.56435,0,0,1-.61068.90137c-.17516.26872-.50445.33824-.62462.65668a1.73867,1.73867,0,0,1-.55.92166C54.85455,39.295,54.87034,39.41312,54.85816,39.49086Z"/>
          <path class="d87bc505-6761-4e83-bace-6f715f1c33c0" d="M39.64059,42.94484c.30588.07564.34895.32766.36213.57756.00787.14936-.2022.32129-.07059.43907a.9558.9558,0,0,0,.658.24015,1.40215,1.40215,0,0,1,.55707.10392,1.22631,1.22631,0,0,0,.72035.13956.55093.55093,0,0,1,.33133.05069,11.1783,11.1783,0,0,0,2.91131.74663,13.98511,13.98511,0,0,0,1.65506.38663,4.12512,4.12512,0,0,1,1.15527.39544,3.56645,3.56645,0,0,0,.98.12646.79387.79387,0,0,1,.198.02459c.41732.15.83305.30448,1.24829.4602.09359.03509.2123.06378.15614.2087-.04686.12093-.14448.09036-.22908.05393a4.7502,4.7502,0,0,0-1.08845-.14577c-.65269-.12252-1.32206-.15672-1.96062-.34283a1.07241,1.07241,0,0,0-.4659-.01432,5.337,5.337,0,0,1-1.33734-.23484,8.09431,8.09431,0,0,1-2.504-.47137c-.14041-.062-.25863.04035-.39815.00445-.77586-.19964-1.58865-.144-2.37094-.35224-.26751-.07119-.58931-.00614-.8799-.10645a.18865.18865,0,0,0-.22853.10784c-.33048-.56212-.27512-.79421.25684-1.07687a1.11026,1.11026,0,0,0,.359-1.192A.35344.35344,0,0,1,39.64059,42.94484Z"/>
          <path class="dd7e809b-d38a-4016-9731-fc53f42aea99" d="M59.01541,5.235a.54922.54922,0,0,1-.62991.06968,1.71931,1.71931,0,0,0-1.04783-.14532.86515.86515,0,0,1-.39127-.0992,3.10021,3.10021,0,0,0-1.47568-.07247,6.589,6.589,0,0,0-1.15769.08245c-.3977.14641-.82759.01075-1.22334.11349-.6016.15618-1.18635.37611-1.785.54522a8.95143,8.95143,0,0,0-2.51979,1.09287,4.38363,4.38363,0,0,1-1.2495.65782.14231.14231,0,0,0-.07958.05532,6.34094,6.34094,0,0,1-1.97907,1.78293,2.32178,2.32178,0,0,0-.48586.62322c-.28177.37558-.53448.78371-.78742,1.18594a12.98793,12.98793,0,0,0-.77843,1.27223.25379.25379,0,0,1-.32767.11008,2.69236,2.69236,0,0,1,.59565-1.33916c.33309-.40538.65514-.81785.94506-1.25062a5.98923,5.98923,0,0,1,1.15322-1.27319c.56045-.46558,1.06967-.98533,1.62838-1.451.3308-.27568.74755-.393,1.09747-.65258A4.81862,4.81862,0,0,1,50.2911,5.578c.45587-.10091.88225-.28631,1.33091-.39738a5.09248,5.09248,0,0,1,1.81764-.3462.6526.6526,0,0,0,.29335-.06586,4.83306,4.83306,0,0,1,2.01045-.17512A8.25822,8.25822,0,0,0,57.27,4.63814c.25873-.03864.51895.13576.78163.2025A2.35878,2.35878,0,0,1,59.01541,5.235Z"/>
          <path class="dd7e809b-d38a-4016-9731-fc53f42aea99" d="M69.03673,21.90306c-.2781-.24893-.12192-.54664-.03284-.78705a9.778,9.778,0,0,0,.16618-1.46431c.06444-.29971.02513-.61285.10964-.92182.09015-.32962-.0746-.66714-.07747-1.0111a12.40864,12.40864,0,0,0-.486-2.88846,9.77732,9.77732,0,0,0-1.41073-3.15372,6.43412,6.43412,0,0,0-.74074-1.15432c-.61966-.58471-1.04889-1.3456-1.72522-1.86874a8.22,8.22,0,0,0-1.79727-1.34963c-.42655-.17722-.77108-.54825-1.21664-.73328-.13538-.05622-.10708-.21173-.11886-.33389a4.43837,4.43837,0,0,1,1.71849.86109,2.39569,2.39569,0,0,0,.61577.44594,3.1518,3.1518,0,0,1,.99484.81371c.23668.26292.53085.47464.76308.74087a13.09547,13.09547,0,0,1,1.15567,1.42117c.2288.3527.41346.75587.63245,1.1305a2.05828,2.05828,0,0,0,.35249.44837c.50692.488.50333,1.18972.72356,1.78746a16.28372,16.28372,0,0,1,.66,2.63482c.0906.48379.03586.99358.09408,1.49129a7.75827,7.75827,0,0,1-.18215,2.87358C69.1483,21.21978,69.27125,21.59623,69.03673,21.90306Z"/>
          <path class="d87bc505-6761-4e83-bace-6f715f1c33c0" d="M50.59149,49.796c.15651-.288.01022-.40468-.25549-.46782-1.14272-.27155-2.20141-.78353-3.30669-1.16254-.12739-.04368-.29185-.115-.229-.27457.053-.13439.22581-.09861.33282-.03925a4.13069,4.13069,0,0,0,1.49579.37559,9.82429,9.82429,0,0,1,1.60744.48549c.17425.05376.29443.08223.36731-.13692.11483-.34531.38878-.39715.70673-.3393-.23472.16525-.48081.31047-.53571.63948a.55643.55643,0,0,0,.03469.40661A.33268.33268,0,0,1,50.59149,49.796Z"/>
          <path class="d87bc505-6761-4e83-bace-6f715f1c33c0" d="M51.31075,48.23653a.74517.74517,0,0,0,.00184-1.17888c-.10888-.1204-.09623-.25429.08031-.363.14957-.0921.14819-.29765.2167-.45136a.33993.33993,0,0,1,.43643-.215.70475.70475,0,0,0,.93871-.78834,1.52524,1.52524,0,0,1,.01077-.16776.702.702,0,0,1-.213,1.0729,1.17144,1.17144,0,0,1-.515.156.56083.56083,0,0,0-.572.69063c.02618.19839.06447.39529.08719.594A.56026.56026,0,0,1,51.31075,48.23653Z"/>
          <path class="d87bc505-6761-4e83-bace-6f715f1c33c0" d="M40.18807,48.03672a.90728.90728,0,0,1,.4802.48646,4.51621,4.51621,0,0,0,.93447,1.242c.27521.25544.48489.58483.89.68352.10609.02584.155.18225.14135.31657a3.17336,3.17336,0,0,1-1.12663-.78475c-.17337-.19541-.39229-.395-.5502-.59922A2.583,2.583,0,0,1,40.18807,48.03672Z"/>
          <path class="d87bc505-6761-4e83-bace-6f715f1c33c0" d="M48.26328,50.7496a1.3692,1.3692,0,0,1,1.16628-.586c-.0208.04007-.03179.10247-.064.11662C49,50.441,48.63121,50.5943,48.26328,50.7496Z"/>
          <path class="d87bc505-6761-4e83-bace-6f715f1c33c0" d="M49.98176,49.86168a.5827.5827,0,0,1,.606-.06417C50.40778,50.02683,50.19569,49.953,49.98176,49.86168Z"/>
          <path class="dd7e809b-d38a-4016-9731-fc53f42aea99" d="M68.09673,24.46128c-.11423-.09992-.08935-.14632.05623-.14631Z"/>
          <path class="2e1261ca-68fa-4d25-ab14-e8ae6079d9ba" d="M44.10678,35.061l-.12258-.0528c.02466-.277.3701-.47823.19158-.806-.00575-.01056.03473-.05294.05981-.07267a2.808,2.808,0,0,1,2.70615-.6467.3852.3852,0,0,0,.55842-.26055c.27566-.772.56667-1.53859.8563-2.30554a2.64706,2.64706,0,0,0,.12362-.81664,7.159,7.159,0,0,1,.404-1.39254,9.21024,9.21024,0,0,0,.39425-2.49965c-.00461-.1153-.00539-.26247-.104-.31287a7.16951,7.16951,0,0,1-.70922-.55318,4.58474,4.58474,0,0,1-1.2749-1.584,3.48424,3.48424,0,0,1-.24877-.48381,3.40312,3.40312,0,0,1-.18025-2.78309,1.76876,1.76876,0,0,1,1.36015-.79652c.59381-.01822.90367.366,1.30064.70266.34907.29606.25819.70538.46279,1.03171a5.5518,5.5518,0,0,1,.37635,1.86709c.10753.48627-.02069,1.01318.05192,1.52159a.69516.69516,0,0,1-.086.29094.71968.71968,0,0,0,.45692,1.02337c.64717.26953,1.29992.53027,1.94163.8097a7.10232,7.10232,0,0,0,1.98386.54606c.31961.03694.53447-.21935.66364-.48785a.91984.91984,0,0,1,.31409-.38575c.26484-.18069.36923-.49132.596-.71539a7.72865,7.72865,0,0,1,2.84108-1.9705.90431.90431,0,0,1,1.05527.18158c.16388.18871.4214.22185.5967.46116a1.91518,1.91518,0,0,1-.35144,2.30225c-.32157.41759-.8051.46139-1.17282.75436a4.22483,4.22483,0,0,1-2.24366.72452,2.84185,2.84185,0,0,1-1.22924-.06783.59707.59707,0,0,0-.69985.3264,2.80252,2.80252,0,0,1-.65387,1.09,2.53921,2.53921,0,0,0-.46526.77318c-.64652,1.5246-1.36433,3.02078-1.88211,4.59877-.08218.25044.00029.38492.219.43573.46137.10717.69432.53307,1.07917.7476a.58057.58057,0,0,1,.2008.34687c.12848.50178.24325,1.00735.35062,1.51416.06544.30887-.13051.48035-.43464.39267-.10911-.03145-.214-.07771-.32069-.11737Zm5.49925-.58519c.34105.12706.67941.2621,1.0242.378.1895.0637.36776.21776.5795.15172.19662-.06131.07511-.29063.1727-.41363.01412-.0178.03122-.03334.0445-.05169a6.22,6.22,0,0,0,.78391-1.6375c.17984-.51531.37868-1.024.57022-1.53522a.82641.82641,0,0,1,.107-.24942,9.56242,9.56242,0,0,0,.85824-1.622c.15973-.28071.32006-.56267.50574-.82476.18973-.2678.16942-.39084-.13161-.53628a6.51786,6.51786,0,0,0-.81644-.22742c-.52612-.17608-1.03692-.38969-1.57717-.53511a8.72725,8.72725,0,0,1-1.23052-.58115c-.3687-.166-.57476-.04164-.5754.36362a8.55014,8.55014,0,0,1-.33773,1.74138,20.68391,20.68391,0,0,1-.98563,3.141,10.3408,10.3408,0,0,0-.51735,1.547c-.05042.23667.00487.332.21416.40552C48.73418,34.14431,49.16912,34.31287,49.606,34.47579Zm10.0707-9.88a.549.549,0,0,0-.413-.00663,4.61266,4.61266,0,0,0-1.114.56584,6.02046,6.02046,0,0,0-1.3524,1.09883c-.28926.28824-.44467.7017-.85227.88293-.15086.06707-.12494.22879-.098.36476a.252.252,0,0,0,.2828.19822,6.76077,6.76077,0,0,0,1.98018-.33532A4.33735,4.33735,0,0,0,59.417,26.677a4.66455,4.66455,0,0,0,.708-.71112C60.40188,25.62114,60.174,24.69908,59.67673,24.59579Zm-11.254-4.20191c-.15277-.04083-.22918-.08652-.329-.06374a1.0263,1.0263,0,0,0-.84741,1.11516,4.68663,4.68663,0,0,0,.68447,2.143,6.25962,6.25962,0,0,1,.41811.54326,2.89315,2.89315,0,0,0,.72986.836c.102.09085.20918.19128.35907.0999a.35384.35384,0,0,0,.14546-.35514,9.42534,9.42534,0,0,0-.1342-2.02956,5.68866,5.68866,0,0,0-.45482-1.64924A1.80665,1.80665,0,0,0,48.42274,20.39388Z"/>
          <path class="dd7e809b-d38a-4016-9731-fc53f42aea99" d="M45.67626,12.89935a4.96108,4.96108,0,0,1,.77656-1.44443c.255-.38735.52016-.78067.79147-1.15309a4.63,4.63,0,0,1,.72855-.76838c.49542-.42239,1.01-.82288,1.525-1.22157a8.96379,8.96379,0,0,1,1.38639-.62325,4.29331,4.29331,0,0,1,1.41465-.34819,1.40288,1.40288,0,0,1,1.1252.39145c.5107.51377,1.05377,1.08009.74816,1.93679a2.52306,2.52306,0,0,1-.46,1.89425,10.603,10.603,0,0,1-1.0525,1.83819,10.19607,10.19607,0,0,1-1.88233,1.86957,4.91785,4.91785,0,0,1-2.1504,1.15863,4.59453,4.59453,0,0,0-.6667.21161,1.86821,1.86821,0,0,1-1.26925-.09269q-.365-.144-.73512-.27453a.718.718,0,0,1-.48033-.6014,4.15125,4.15125,0,0,0-.18671-.85125.92225.92225,0,0,1-.00057-.55563A5.20738,5.20738,0,0,1,45.67626,12.89935Z"/>
          <path class="b58a3731-78ef-48a5-875b-e45239d16345" d="M51.0701,38.09039q1.82763.67894,3.65521,1.35791c-.03708.36908.15985.72025.04035,1.10523a1.23418,1.23418,0,0,1-1.14635.81748c-.23283.04061-.41643.07762-.46539.34468a.25367.25367,0,0,1-.27658.20738c-.24155-.06187-.494.04467-.72735-.08132a4.81324,4.81324,0,0,0-1.7454-.47545,10.78867,10.78867,0,0,1-1.38765-.39744c-.58143-.14473-1.1629-.28492-1.7542-.39494a10.6484,10.6484,0,0,0-1.47795-.36479c-.67641-.02782-1.24446-.42611-1.902-.49325a8.26293,8.26293,0,0,1-1.968-.44307c-.19932-.07172-.291-.16037-.18293-.37092a.276.276,0,0,0-.02456-.34426c-.09314-.10775-.22295-.2615-.11165-.38887.10661-.122.31047-.101.47011-.077a2.101,2.101,0,0,1,.41788.14624,4.38993,4.38993,0,0,0,1.3079.22009.70824.70824,0,0,1,.26016.07328,1.41847,1.41847,0,0,0,.85283.09911,2.50372,2.50372,0,0,1,.87793.13067c.59392.1365,1.19674.15451,1.79011.25543a11.34871,11.34871,0,0,0,2.40389.20409.61719.61719,0,0,1,.25782.0841,2.67409,2.67409,0,0,0,1.10978.15984.99059.99059,0,0,1,.32575.0836.98916.98916,0,0,0,.78185.07382c.22474-.09055.42821.10766.64482.16373.11781.0305.26621.122.3272-.03762.07024-.18382-.13095-.174-.22911-.21713a5.06051,5.06051,0,0,0-1.92217-.441.80962.80962,0,0,1-.25874-.08331,6.04217,6.04217,0,0,0-1.85068-.40878,1.00476,1.00476,0,0,1-.29066-.09559,8.3415,8.3415,0,0,0-1.84776-.42314,4.66612,4.66612,0,0,1-1.24926-.44809,2.06679,2.06679,0,0,0-.88354-.14992,5.57718,5.57718,0,0,1-1.45789-.41943c-.20231-.05746-.38587-.19288-.61989-.108a.24893.24893,0,0,1-.22018-.06626c-.16866-.21032-.33955-.19409-.57006-.09635-.15.0636-.263-.08731-.3389-.22372a.582.582,0,0,1-.00737-.6153.35222.35222,0,0,1,.38688-.13406,21.25705,21.25705,0,0,1,2.29178.68772,5.05771,5.05771,0,0,0,1.45948.29508.64667.64667,0,0,1,.22769.06631,18.60032,18.60032,0,0,0,2.68235.73135,11.50382,11.50382,0,0,1,1.42582.44758,7.538,7.538,0,0,0,.85554.118C51.02166,38.16742,51.04879,38.1162,51.0701,38.09039Z"/>
          <path class="02807adb-a7a3-49c9-958f-f77b598ba2fa" d="M49.60606,34.47573c-.43694-.16286-.87188-.33142-1.31175-.48593-.20929-.07352-.26458-.16885-.21416-.40552a10.3408,10.3408,0,0,1,.51735-1.547,20.68391,20.68391,0,0,0,.98563-3.14095,8.55014,8.55014,0,0,0,.33773-1.74138c.00064-.40526.2067-.52959.5754-.36362a8.72725,8.72725,0,0,0,1.23052.58115c.54025.14542,1.05105.359,1.57717.53511a6.51786,6.51786,0,0,1,.81644.22742c.301.14544.32134.26848.13161.53628-.18568.26209-.346.54405-.50574.82476a9.56242,9.56242,0,0,1-.85824,1.622.82641.82641,0,0,0-.107.24942c-.19154.51122-.39038,1.01991-.57022,1.53522a6.22,6.22,0,0,1-.78391,1.6375c-.01328.01835-.03038.03389-.0445.05169-.09759.123.02392.35232-.1727.41363-.21174.066-.39-.088-.5795-.15172C50.28544,34.73789,49.94708,34.60285,49.60606,34.47573Z"/>
          <path class="02807adb-a7a3-49c9-958f-f77b598ba2fa" d="M59.67673,24.59579c.49727.10329.72515,1.02535.44822,1.37012a4.66455,4.66455,0,0,1-.708.71112,4.33735,4.33735,0,0,1-1.30691.68739,6.76077,6.76077,0,0,1-1.98018.33532.252.252,0,0,1-.2828-.19822c-.027-.136-.0529-.29769.098-.36476.4076-.18123.563-.59469.85227-.88293a6.02046,6.02046,0,0,1,1.3524-1.09883,4.61266,4.61266,0,0,1,1.114-.56584A.549.549,0,0,1,59.67673,24.59579Z"/>
          <path class="02807adb-a7a3-49c9-958f-f77b598ba2fa" d="M48.42274,20.39388a1.80665,1.80665,0,0,1,.57157.63958,5.68866,5.68866,0,0,1,.45482,1.64924,9.42534,9.42534,0,0,1,.1342,2.02956.35384.35384,0,0,1-.14546.35514c-.14989.09138-.25707-.009-.35907-.0999a2.89315,2.89315,0,0,1-.72986-.836,6.25962,6.25962,0,0,0-.41811-.54326,4.68663,4.68663,0,0,1-.68447-2.143,1.0263,1.0263,0,0,1,.84741-1.11516C48.19356,20.30736,48.27,20.35305,48.42274,20.39388Z"/>
        </g>
      </g>
    </g>
  </g>
</svg>
