<svg xmlns="http://www.w3.org/2000/svg" xmlns:xlink="http://www.w3.org/1999/xlink" viewBox="0 0 162.62192 162.62192">
  <defs>
    <style>
      .\35 59786a4-cea1-4b7c-8480-574c10275fa6, .\37 b1cc274-34b0-4cca-98e1-d04bac599479, .b1de47d2-c822-4c1b-b515-927be52d69c2 {
        fill: #fff8f3;
      }

      .\31 20e7872-bd83-4b6d-ab31-3f7abaf50ca6, .\37 b1cc274-34b0-4cca-98e1-d04bac599479, .b1de47d2-c822-4c1b-b515-927be52d69c2, .cbb8879c-6e60-49da-af1a-622de3b61493 {
        stroke-miterlimit: 10;
      }

      .b1de47d2-c822-4c1b-b515-927be52d69c2 {
        stroke-width: 3.79129px;
        stroke: url(#171a5fb8-b6cb-4a1c-a213-2ec27ecdbdf4);
      }

      .\31 20e7872-bd83-4b6d-ab31-3f7abaf50ca6, .\37 b1cc274-34b0-4cca-98e1-d04bac599479, .cbb8879c-6e60-49da-af1a-622de3b61493 {
        stroke: #fff8f3;
      }

      .\31 20e7872-bd83-4b6d-ab31-3f7abaf50ca6 {
        stroke-width: 0.40621px;
      }

      .\37 b1cc274-34b0-4cca-98e1-d04bac599479 {
        stroke-width: 0.08433px;
      }

      .cbb8879c-6e60-49da-af1a-622de3b61493 {
        stroke-width: 0.09426px;
      }
    </style>
    <linearGradient id="171a5fb8-b6cb-4a1c-a213-2ec27ecdbdf4" y1="81.31096" x2="162.62192" y2="81.31096" gradientUnits="userSpaceOnUse">
      <stop offset="0" stop-color="#ed1c24"/>
      <stop offset="0.22085" stop-color="#fff200"/>
      <stop offset="0.43435" stop-color="#8cc340"/>
      <stop offset="0.74565" stop-color="#1f74b7"/>
      <stop offset="0.97418" stop-color="#ed1c24"/>
    </linearGradient>
  </defs>
  <title>map</title>
  <g id="648c0cb2-9829-4887-ae5f-a9f6f064dd1b" data-name="Layer 2">
    <g id="6d8fa34f-c30d-4dea-90cd-068f48475f5e" data-name="Layer 1">
      <g>
        <g>
          <path class="b1de47d2-c822-4c1b-b515-927be52d69c2" d="M19.47827,1.89564H143.22622A17.50006,17.50006,0,0,1,160.72627,19.3957v124.962a16.36856,16.36856,0,0,1-16.36856,16.36856H18.02079A16.12515,16.12515,0,0,1,1.89564,144.60112V19.47827A17.58263,17.58263,0,0,1,19.47827,1.89564Z"/>
          <path class="120e7872-bd83-4b6d-ab31-3f7abaf50ca6" d="M41.33539,88.19911l-4.66763,5.571V102.202a1.71835,1.71835,0,0,1-1.92407-1.42753l1.15436,7.31944s.37164,2.45283,2.82447,0a106.37009,106.37009,0,0,1,9.36536-7.31944s.8829-1.22832,3.972-.708a121.70267,121.70267,0,0,0,14.23839,2.08119s1.11493-.59462,3.86507,1.48657,3.12179,2.8988,5.05432,3.04746a6.73443,6.73443,0,0,1,3.56776,1.70955s3.49343,2.82447,6.54089,3.49343,3.27044,0,3.27044,0a1.23826,1.23826,0,0,0-.5203-1.70955c-1.11492-.669.6787-3.34477.6787-3.34477l1.69981-.446,1.63522-2.0812.96627-.07432,1.70955-1.41224s-1.18925-3.9394.37164-4.83134c0,0,1.93254.223,1.48657-1.33791s.74328-1.41224.74328-1.41224.96627.223.96627.81762.81761,1.04059.81761,1.04059.74328.14866.96626-2.08119.89194-2.08119-1.78387-2.75015l.223-3.49342s-.5203-1.06458-1.33791-.56946a1.53574,1.53574,0,0,1-1.63522-.13131l.29731-1.90072a8.55422,8.55422,0,0,0-1.78388-3.2979c-1.48656-1.83076-1.41223-5.39851-1.41223-5.39851a11.81163,11.81163,0,0,0-1.11493-4.311,3.92043,3.92043,0,0,0-3.19611-1.70955s-.29732-1.05912-2.45284-.93837c0,0-1.26358-.99417-.96626-4.56192s-.14866-1.5609-2.52716-2.45284.446-3.04746-4.23672-3.79074a4.74385,4.74385,0,0,0-2.52716-2.60149c-1.70955-.5203-.52029-2.8988-.52029-2.8988s.14865-4.38537-1.85821-5.05432a6.12743,6.12743,0,0,1-1.18925-1.93254c-.29732-.96627-1.33791,1.70955-1.33791,1.70955s-2.00687-.5203-1.78388,1.41224c0,0-2.22985.74328-.81761,2.22985s-1.18925,1.56089-1.18925,1.56089l-2.52307.96627a2.04571,2.04571,0,0,1-2.67991-.59463c-1.33791-1.48656-3.34478-2.75014-5.203-2.52716,0,0-1.78388-3.49343-3.71642-3.04746s.81761,2.30418.07433,4.16238-3.09652,8.03082-3.25711,9.95783-3.292,4.81752-3.292,4.81752A11.4003,11.4003,0,0,0,44.122,75.09263C44.36284,79.26782,41.80621,75.95624,41.33539,88.19911Z"/>
          <path class="120e7872-bd83-4b6d-ab31-3f7abaf50ca6" d="M14.12587,130.08716a97.03425,97.03425,0,0,0,1.95418-12.40479l-.59475-4.33318,2.379-1.1895a.92708.92708,0,0,0-.76468-1.35942l1.27447-10.02579,15.54846,1.01957,1.1895,7.81672s1.01957,1.95417,3.48354-.16993S49.556,100.77448,49.556,100.77448l15.97329,1.86921s3.48353-.16992,7.137,4.33318l2.88878.59475s7.052,5.43772,10.87543,5.18282l.42482,3.14368s1.86922.085,0,3.90836c0,0-1.52935,2.294-.16993,3.22864a3.03036,3.03036,0,0,1,1.4444,2.03915s.13391.525-.86167,1.59436.07375,3.42922,1.95429,4.05607-.18437,2.17552-.84809,1.91741-2.58113,1.51181-1.84367,2.39677.2311,3.10251.2311,3.10251,1.70215.73538,1.45406,1.37332-3.50867-.70882-3.50867-.70882-.886-.21265-.99235,1.27588-1.70118,0-1.70118,0,.14177,2.5872-.53161,3.296-1.84294.21264-1.6303,2.48088a1.54065,1.54065,0,0,1-2.19735.21264c-1.34676-.92147-.42529,5.52882-.42529,5.52882s1.73662.85059.70882,1.59485c0,0-.21265.85059-3.86308-.28352a28.88506,28.88506,0,0,1-7.41114.06425l-2.457-2.25464s-.57811-.63592-2.51478-.5203-3.41087-2.16792-3.41087-2.16792-7.09085-3.1282-8.37384-2.97546-.76368-1.22189-.09164-1.34408-.21383-2.29105-.21383-2.29105a1.99752,1.99752,0,0,0-2.10777.336c-1.22189.85532-1.06915-.91642-1.06915-.91642s-1.31354-.70259-1.55792.611-1.31353.82477-1.31353.82477-2.24739-1.3578-2.97444-.76294-1.85068-1.388-1.85068-1.388Z"/>
          <path class="120e7872-bd83-4b6d-ab31-3f7abaf50ca6" d="M138.85861,11.09483,136.549,27.8923l1.15483.70032s.537,3.21258-1.15483,5.00785l-1.88079.47244v1.22834l1.03937.37795-.09449,3.496h-4.44093V53.065h-1.79527v2.45668l-1.41732,1.51181V60.813s-1.81444.33362-1.93449-.86688-3.04127-.64026-3.1213-.12l-1.00042.80034s-2.00083,1.08045-.60025-1.00042l1.36057-1.56065s.56545-3.8416-1.85817-4.12172a3.70639,3.70639,0,0,0-3.54408,2.12089,6.94054,6.94054,0,0,0-.7203,3.44143c-.04,2.401-1.64068,1.76073-1.64068,1.76073s-1.04044-.04-1.12047-2.401a2.663,2.663,0,0,0-2.521-2.52105,3.51413,3.51413,0,0,0-3.20133,1.16049c-1.16049,1.52063-4.96207,3.40141-4.96207,3.40141a3.33885,3.33885,0,0,0-2.12088,2.361s.04,2.84118-1.08045,2.04085-1.2005-2.8812-1.2005-2.8812.12-4.16174-1.28054-3.52147a8.75162,8.75162,0,0,0-2.56106,2.00083,3.56751,3.56751,0,0,0,0,2.24094c.40016,1.24051-.60025,4.16173-.60025,4.16173s-1.88079,3.1213-4.922,3.20133-3.44144-3.80158-3.44144-3.80158V64.74809s.08-1.2005-.64026-1.24051-3.08129-2.6411-3.08129-2.6411A1.33476,1.33476,0,0,0,80.68615,59.706c-1.28054.16007-4.41066-3.10807-4.41066-3.10807v-5.6626a3.56371,3.56371,0,0,0-1.95565-2.03854,3.92088,3.92088,0,0,1-.61539-1.50111c0-.56222-.92889-1.14889-.92889-1.14889a.70487.70487,0,0,1,.12222-.88c.41556-.46444,1.12444.04889,1.12444.04889a2.68267,2.68267,0,0,0,1.19778.34222,9.85583,9.85583,0,0,1,2.44444.95334,2.06328,2.06328,0,0,0,2.25124.12833c1.25257-.68892-.501-2.56778-.501-2.56778l1.94149-2.192.12526-1.27651,3.69508-3.92166a9.32532,9.32532,0,0,0,1.3152-4.94766c-.06263-2.88092-.37577-3.69509,1.691-6.576a40.59087,40.59087,0,0,0,5.19817-8.267c2.25463-4.63452,2.56777-4.75977,4.00823-5.32343a15.17734,15.17734,0,0,0,4.44663-2.192c1.87886-1.37783,24.67567.81417,24.67567.81417S136.23762,11.92521,138.85861,11.09483Z"/>
        </g>
        <path class="7b1cc274-34b0-4cca-98e1-d04bac599479" d="M70.732,103.80609c-.02119.16095-3.62394-1.97184-4.13841-1.92312-1.58549-.11105-3.01157-.14455-4.52576-.34977a1.07679,1.07679,0,0,1-.86766-1.43326,1.3078,1.3078,0,0,1,.19939-.30808,2.95448,2.95448,0,0,0,.49512-1.03671,1.27891,1.27891,0,0,0-.66719-1.332,3.90252,3.90252,0,0,0-2.20681-.53951,2.66488,2.66488,0,0,0-1.00291.10576,1.00767,1.00767,0,0,0-.59719.96747,6.53975,6.53975,0,0,0,.24127,1.47654l.00278.01411a1.04954,1.04954,0,0,1-1.183,1.219c-1.55781-.2112-3.11546-.42363-4.67412-.62835-.18336-.02409-1.88516-.96052-4.33281.97068"/>
        <path class="cbb8879c-6e60-49da-af1a-622de3b61493" d="M59.53253,98.35983a4.906,4.906,0,0,1,1.54482.4885,1.13438,1.13438,0,0,1,.63853.917,1.45274,1.45274,0,0,1-.27065.8092c-.1449.25225-.38063.43173-.53722.67736a2.7195,2.7195,0,0,0-.34718.761.67924.67924,0,0,0-.01711.31232l-3.26773-.44238a.82061.82061,0,0,0,.37383-.97639c-.1046-.36149-.22257-.71729-.34862-1.06915a2.28424,2.28424,0,0,1-.12814-.78256.71991.71991,0,0,1,.53676-.69254,2.4546,2.4546,0,0,1,.76651-.10259A5.39214,5.39214,0,0,1,59.53253,98.35983Z"/>
        <path d="M56.7149,102.09216a1.19449,1.19449,0,0,0,.88962-.46656l2.8777.49034s-.06464.437.26631.47316l-1.9046.21674Z"/>
        <path class="559786a4-cea1-4b7c-8480-574c10275fa6" d="M86.87228,68.95509c-1.28931-2.27878-.5856-5.16929-1.04944-5.39712-1.29272-.92466-2.52314-.96563-4.02523-1.69969a1.02912,1.02912,0,0,1,.0111-1.6754,1.30771,1.30771,0,0,1,.33116-.1581,2.9544,2.9544,0,0,0,.9646-.62408,1.27892,1.27892,0,0,0,.1289-1.48419,3.90257,3.90257,0,0,0-1.59778-1.615,2.66492,2.66492,0,0,0-.90986-.43494,1.00768,1.00768,0,0,0-1.01531.51165,6.54,6.54,0,0,0-.56744,1.38434l-.005.01348c-.24979.66509-.5621.90705-1.112.45716-1.21671-.9955-.27739-.67108-1.4982-1.66151-.14361-.11651.09-1.31929-.11993-3.02838"/>
        <path class="cbb8879c-6e60-49da-af1a-622de3b61493" d="M81.29885,57.82724a4.90555,4.90555,0,0,1,1.06046,1.225,1.13433,1.13433,0,0,1,.06394,1.11561,1.45266,1.45266,0,0,1-.65423.54775c-.25551.13906-.55032.16857-.81233.29587a2.72,2.72,0,0,0-.6942.4666.67929.67929,0,0,0-.17808.25715l-2.55254-2.08765a.82062.82062,0,0,0,.82967-.63619c.10013-.36275.18589-.72766.26271-1.09344a2.28442,2.28442,0,0,1,.3005-.73383.71992.71992,0,0,1,.8199-.309,2.45453,2.45453,0,0,1,.70677.31387A5.39127,5.39127,0,0,1,81.29885,57.82724Z"/>
        <path d="M77.14554,59.403a1.12144,1.12144,0,0,0,1.08234-.04782l2.90663,1.53006a1.39433,1.39433,0,0,0-.09042,1.15126l-2.55567-.71791Z"/>
      </g>
    </g>
  </g>
</svg>
