<svg xmlns="http://www.w3.org/2000/svg" xmlns:xlink="http://www.w3.org/1999/xlink" viewBox="0 0 163.15881 163.15881">
  <defs>
    <style>
      .\39 fccdc37-84bd-423a-8f92-b721c6f390e0, .d5eba34e-124d-4d30-a0d1-4f248d3b26da {
        fill: #fff8f3;
      }

      .\39 fccdc37-84bd-423a-8f92-b721c6f390e0, .d5eba34e-124d-4d30-a0d1-4f248d3b26da, .fddb1efa-05da-4f3e-8214-f46fa6e39ec8 {
        stroke-miterlimit: 10;
      }

      .\39 fccdc37-84bd-423a-8f92-b721c6f390e0 {
        stroke-width: 3.8038px;
        stroke: url(#3b5d9708-5f3f-446f-be11-a3f7b69ea4b1);
      }

      .d5eba34e-124d-4d30-a0d1-4f248d3b26da, .fddb1efa-05da-4f3e-8214-f46fa6e39ec8 {
        stroke: #fff8f3;
      }

      .d5eba34e-124d-4d30-a0d1-4f248d3b26da {
        stroke-width: 0.35335px;
      }

      .fddb1efa-05da-4f3e-8214-f46fa6e39ec8 {
        stroke-width: 0.41369px;
      }
    </style>
    <linearGradient id="3b5d9708-5f3f-446f-be11-a3f7b69ea4b1" y1="81.57941" x2="163.15881" y2="81.57941" gradientUnits="userSpaceOnUse">
      <stop offset="0" stop-color="#ed1c24"/>
      <stop offset="0.22085" stop-color="#fff200"/>
      <stop offset="0.43435" stop-color="#8cc340"/>
      <stop offset="0.74565" stop-color="#1f74b7"/>
      <stop offset="0.97418" stop-color="#ed1c24"/>
    </linearGradient>
  </defs>
  <title>puzzle-plus</title>
  <g id="4019bc9c-0d35-44fa-954d-67c835cd1893" data-name="Layer 2">
    <g id="784f3f31-9c49-4c65-9e70-a9c54572c8bf" data-name="Layer 1">
      <g>
        <rect class="9fccdc37-84bd-423a-8f92-b721c6f390e0" x="1.9019" y="1.9019" width="159.35501" height="159.35501" rx="17.42405" ry="17.42405"/>
        <polygon points="107.367 72.231 107.367 24.07 88.247 24.07 88.247 137.761 107.884 137.761 107.884 92.243 146.126 92.243 146.126 72.231 107.367 72.231"/>
        <path class="d5eba34e-124d-4d30-a0d1-4f248d3b26da" d="M88.04015,131.64259c-.68019.00251.05564-18.26722.05814-18.99678q.03291-9.60354.0191-19.20729c.0004-2.78678,2.27829-5.16225,4.94611-4.35671a5.47934,5.47934,0,0,1,1.39122.6547,12.37921,12.37921,0,0,0,4.58287,1.47306c2.59783.054,4.07491-1.37094,5.15573-3.519,1.46791-2.91736,1.392-6.19046.99965-9.46623a11.166,11.166,0,0,0-1.00288-4.10478,4.22218,4.22218,0,0,0-4.35277-1.93579,27.40279,27.40279,0,0,0-5.99516,1.83177l-.057.01947a4.39762,4.39762,0,0,1-5.72662-4.22669c.00126-6.587.00774-13.17392-.01834-19.76076-.00307-.77488-.70881-18.53347,0-18.53136"/>
        <path class="fddb1efa-05da-4f3e-8214-f46fa6e39ec8" d="M96.53491,81.6563a21.53083,21.53083,0,0,1-1.215,7.00617,4.97835,4.97835,0,0,1-3.61232,3.31693,6.37552,6.37552,0,0,1-3.67861-.70063c-1.18237-.48167-2.10176-1.40119-3.26221-1.93759a11.93552,11.93552,0,0,0-3.514-1.0619,2.98073,2.98073,0,0,0-1.36839.10951V73.9167a3.60151,3.60151,0,0,0,4.4665,1.051c1.51057-.66776,2.98853-1.3903,4.44458-2.14566a10.02576,10.02576,0,0,1,3.328-1.01807,3.15957,3.15957,0,0,1,3.328,1.9267,10.77241,10.77241,0,0,1,.89746,3.27317A23.66354,23.66354,0,0,1,96.53491,81.6563Z"/>
        <polygon class="fddb1efa-05da-4f3e-8214-f46fa6e39ec8" points="82.155 23.751 82.155 137.434 62.514 137.434 61.471 90.588 24.271 90.588 24.271 71.06 62.514 71.06 62.514 23.751 82.155 23.751"/>
        <path d="M81.93044,74.81439s.133.58914.57964.71267v12.778s-.59059-.0441-.57964.50714Z"/>
      </g>
    </g>
  </g>
</svg>
