<svg xmlns="http://www.w3.org/2000/svg" xmlns:xlink="http://www.w3.org/1999/xlink" viewBox="0 0 212.67683 211.12124">
  <defs>
    <style>
      .\30 fd4fccc-b87e-4021-8092-3da21bbba025 {
        fill: #fff8f3;
        stroke-miterlimit: 10;
        stroke-width: 6.8219px;
        stroke: url(#19bb8cc1-7f04-4f46-b0c8-0df24f22c049);
      }
    </style>
    <linearGradient id="19bb8cc1-7f04-4f46-b0c8-0df24f22c049" y1="105.56062" x2="212.67683" y2="105.56062" gradientUnits="userSpaceOnUse">
      <stop offset="0" stop-color="#ef3b39"/>
      <stop offset="0.22085" stop-color="#fff200"/>
      <stop offset="0.43435" stop-color="#8cc340"/>
      <stop offset="0.74565" stop-color="#1f74b7"/>
      <stop offset="1" stop-color="#ed1c24"/>
    </linearGradient>
  </defs>
  <title>puzzle-piece</title>
  <g id="6b449d3c-f2b8-472f-9cf2-55295bbc3cb4" data-name="Layer 2">
    <g id="9801a038-c769-4427-85af-5fbdd942b7c3" data-name="Layer 1">
      <path class="0fd4fccc-b87e-4021-8092-3da21bbba025" d="M209.23581,78.78714q.00342,14.73741.00031,29.4748c-.00207,3.5895-2.34635,5.78423-5.88214,5.25394a28.51108,28.51108,0,0,1-13.15586-5.14645,18.90526,18.90526,0,0,0-8.867-3.61843c-5.06355-.67181-8.69046,1.94436-10.92777,6.95746a39.0879,39.0879,0,0,0-3.02368,14.74749c-.1831,5.3017-.32146,10.61272.65446,15.87806a18.97144,18.97144,0,0,0,2.44565,6.42055c1.6246,2.67776,5.306,3.61589,8.32415,2.88359,5.71884-1.38754,10.67973-4.40168,15.87481-6.91292,5.00741-2.42054,9.4518-1.163,12.392,3.563a13.9772,13.9772,0,0,1,2.191,7.70652q-.10435,24.62288.004,49.24639c.00628,1.70172-.37221,2.3299-2.19746,2.32364-18.55118-.06358-37.10268-.04088-55.65408-.05-2.62075-.00127-3.44491-.75449-3.31166-3.395.20085-3.98038,1.65425-7.69711,2.69233-11.49736.94374-3.45494,2.04893-6.84837,2.12494-10.50784.135-6.49938-3.33168-10.6842-8.70578-13.38824a40.04287,40.04287,0,0,0-23.263-3.92979c-3.57033.42769-7.09334.79245-10.26953,2.50905-4.02784,2.17688-5.28733,6.685-4.84307,10.89.56121,5.31183,2.87881,10.05311,4.58282,14.999a16.46189,16.46189,0,0,1,.31346,11.27494c-.8863,2.43879-2.03891,3.195-4.62359,3.19525-18.55143.00183-37.103-.02794-55.6541.0455-1.93864.00769-2.32158-.65336-2.3163-2.42665.05554-18.61228.03487-37.22479.0351-55.83725a8.11656,8.11656,0,0,0-7.87557-8.33322c-5.39959-.42034-10.12364,1.74615-14.93178,3.61707-4.61333,1.79517-9.25944,2.87063-14.17594,1.30032-2.92125-.93306-4.54-3.14932-5.66189-5.78435a28.43313,28.43313,0,0,1-1.81439-8.15805A43.77906,43.77906,0,0,1,6.3419,110.90925c1.89257-4.79533,4.6824-8.88225,9.75723-10.88054,3.46533-1.36453,6.97767-.95267,10.42122-.10139,4.8706,1.20408,9.67559,2.67093,14.5265,3.95808,4.11073,1.09074,6.69933-1.09129,7.10023-5.91424.06553-.78836.02859-1.58575.02883-2.379.00487-15.80529.03461-31.61068-.0247-47.41574-.00668-1.77966.52668-2.25645,2.28218-2.24978q25.26376.096,50.52809.03645a14.22259,14.22259,0,0,0,9.04263-3.34657,8.46634,8.46634,0,0,0,2.491-10.50664c-1.57031-3.52709-3.27692-6.998-5.045-10.431a23.84944,23.84944,0,0,1-2.39313-7.80255,7.46841,7.46841,0,0,1,4.52654-7.81846,24.818,24.818,0,0,1,7.67991-2.09374,56.35586,56.35586,0,0,1,10.93412-.45353c5.56651.37929,11.17292.67439,16.43978,2.86693,3.916,1.63022,6.935,4.1717,7.7912,8.47617.59743,3.00357-.51858,5.86157-1.655,8.62594-1.13954,2.77187-3.29684,4.93324-4.54506,7.66408a28.451,28.451,0,0,0-2.5005,8.23963c-.45891,3.68824,1.3128,6.78509,5.9336,6.74139,19.15994-.18125,38.32268-.05117,57.48411-.11522,1.76477-.0059,2.12628.6,2.11719,2.20453C209.20519,58.40482,209.23351,68.59607,209.23581,78.78714Z"/>
    </g>
  </g>
</svg>
