<svg xmlns="http://www.w3.org/2000/svg" xmlns:xlink="http://www.w3.org/1999/xlink" viewBox="0 0 163.15901 163.15901">
  <defs>
    <style>
      .\33 9b14b0c-a72e-45d6-9fb4-571a5d8fd5dd {
        fill: #fff8f3;
        stroke-miterlimit: 10;
        stroke-width: 3.804px;
        stroke: url(#91a22f7b-68dc-4359-96c8-345a32dc5b07);
      }
    </style>
    <linearGradient id="91a22f7b-68dc-4359-96c8-345a32dc5b07" y1="81.57951" x2="163.15901" y2="81.57951" gradientUnits="userSpaceOnUse">
      <stop offset="0" stop-color="#ed1c24"/>
      <stop offset="0.22085" stop-color="#fff200"/>
      <stop offset="0.43435" stop-color="#8cc340"/>
      <stop offset="0.74565" stop-color="#1f74b7"/>
      <stop offset="0.97418" stop-color="#ed1c24"/>
    </linearGradient>
  </defs>
  <title>question-mark</title>
  <g id="fb94e34a-d7b8-4a3a-a208-7e64a05ed535" data-name="Layer 2">
    <g id="49922f86-f020-4097-8417-208e8d1b1bca" data-name="Layer 1">
      <g>
        <rect class="39b14b0c-a72e-45d6-9fb4-571a5d8fd5dd" x="1.902" y="1.902" width="159.35501" height="159.35501" rx="17.42405" ry="17.42405"/>
        <g>
          <path d="M89.79035,145.80318a.19862.19862,0,0,0,.15507-.19377l.00025-7.01854a.89973.89973,0,0,0-.75768-1.01292,1.50136,1.50136,0,0,0-1.3674.62908,2.41157,2.41157,0,0,1-2.19888.35962,2.33424,2.33424,0,0,1-1.683-1.63789,3.49181,3.49181,0,0,1,.06116-2.39457c.50181-1.26251,2.43469-1.44221,2.43469-1.44221a1.89979,1.89979,0,0,1,1.56369.52266c.46477.60887,1.43455.54086,2.11713-.43652l.01136-6.79814s.01956-.39315-.13674-.46883a.73357.73357,0,0,0-.44519.03281s-3.26067.84953-5.23312,1.17614-1.87563.13775-2.38442-.52872.4917-1.75179.4917-1.75179a2.3601,2.3601,0,0,0-.636-3.35564c-1.98446-1.52547-3.48417.6925-3.48417.6925a2.85726,2.85726,0,0,0-.37886,2.37148,4.24064,4.24064,0,0,0,.58335.95156,1.30131,1.30131,0,0,1,.11692,1.084.99259.99259,0,0,1-1.03959.67263,28.084,28.084,0,0,1-5.98888-.47449s-.91-.2151-1.00517-.11415-.13524.1-.12963.52641.04389,3.52251-.11,6.02972,1.60734,2.06872,1.949,1.692c.36915-.407.473-.87462,2.00191-.92147s1.91951,1.65832,1.91951,1.65832a3.63553,3.63553,0,0,1-1.7166,3.34474s-1.37529.4295-2.05648-.31666A1.34778,1.34778,0,0,0,70.834,138.451s-.57707.28155-.57011,1.54919-.06553,3.55336-.16457,6.08749c0,0-.02865.51817.21824.57285a25.72189,25.72189,0,0,0,3.02342.469,39.00139,39.00139,0,0,0,12.38857-.41375Z"/>
          <path d="M71.08466,145.80318a.1986.1986,0,0,1-.15506-.19377l-.00026-7.01854a.89973.89973,0,0,1,.75769-1.01292,1.50137,1.50137,0,0,1,1.3674.62908,2.41156,2.41156,0,0,0,2.19888.35962,2.33427,2.33427,0,0,0,1.683-1.63789,3.49178,3.49178,0,0,0-.06117-2.39457c-.50181-1.26251-2.43469-1.44221-2.43469-1.44221a1.89977,1.89977,0,0,0-1.56368.52266c-.46478.60887-1.43456.54086-2.11714-.43652L70.74824,126.38s-.01957-.39315.13673-.46883a.73357.73357,0,0,1,.44519.03281s3.26068.84953,5.23313,1.17614,1.87562.13775,2.38441-.52872-.4917-1.75179-.4917-1.75179a2.3601,2.3601,0,0,1,.636-3.35564c1.98446-1.52547,3.48417.6925,3.48417.6925a2.85726,2.85726,0,0,1,.37886,2.37148,4.24041,4.24041,0,0,1-.58334.95156,1.30132,1.30132,0,0,0-.11693,1.084.9926.9926,0,0,0,1.0396.67263,28.08406,28.08406,0,0,0,5.98888-.47449s.91-.2151,1.00516-.11415.13525.1.12963.52641-.04389,3.52251.11005,6.02972-1.60734,2.06872-1.949,1.692c-.36915-.407-.473-.87462-2.00192-.92147s-1.9195,1.65832-1.9195,1.65832a3.63551,3.63551,0,0,0,1.71659,3.34474s1.37529.4295,2.05649-.31666a1.34778,1.34778,0,0,1,1.61035-.22955s.57707.28155.57011,1.54919.06552,3.55336.16456,6.08749c0,0,.02865.51817-.21824.57285a25.72189,25.72189,0,0,1-3.02342.469,39.00132,39.00132,0,0,1-12.38856-.41375Z"/>
        </g>
        <g>
          <path d="M113.736,49.13191q-.1649,11.76932-5.60267,19.60965L92.33468,92.09163a19.39729,19.39729,0,0,0-2.97419,10.39222.05833.05833,0,0,0-.00393.02751.31557.31557,0,0,1,.00393.08645c-.43616,1.56374-.20431,7.44154-.05112,10.30971.00786.16894.01573.33.02359.47539a1.42094,1.42094,0,0,1-1.39088,1.11978H81.49069c.22-1.03726,1.47337-2.19632,1.20613-3.53217a2.46676,2.46676,0,0,0-2.27481-2.00774.43594.43594,0,0,0-.07079-.00784c-.04317-.00394-.0825-.00787-.11789-.00787-.09036-.00393-.14532-.00393-.14532-.00393a.50412.50412,0,0,0-.07463.00786c-.0118,0-.02753.00394-.04326.00394a3.11709,3.11709,0,0,0-2.68354,1.9527,3.33514,3.33514,0,0,0,.79769,3.155v.00394a1.064,1.064,0,0,1,.07463.07856l.0117.0118s.03933.14143.08652.34575h-5.8582a1.42189,1.42189,0,0,1-1.42225-1.4223V102.307a49.73191,49.73191,0,0,1,.85256-9.66927,24.82265,24.82265,0,0,1,3.654-8.2077l15.551-23.16539q4.33755-6.56538,4.33764-12.31351-.18273-7.83835-4.93485-12.31349a16.12691,16.12691,0,0,0-22.10459.18465q-4.78558,4.3612-5.088,14.49017A1.42017,1.42017,0,0,1,61.826,52.69159H46.275a1.42022,1.42022,0,0,1-1.41832-1.41837V48.9669q.17683-15.45279,10.294-25.35781a32.97974,32.97974,0,0,1,23.75082-10.18,35.29944,35.29944,0,0,1,24.19091,9.44925Q113.55922,32.59668,113.736,49.13191Z"/>
          <path d="M89.36049,102.59781a88.04349,88.04349,0,0,0-.05112,10.30971c.00786.16894.01573.33.02359.47539a1.55329,1.55329,0,0,1-1.00978,1.53625c-1.81908.67578-5.40631,1.882-6.29034,1.19835a1.43718,1.43718,0,0,1-.54215-1.61482c.22-1.03726,1.47337-2.19632,1.20613-3.53217a2.46676,2.46676,0,0,0-2.27481-2.00774.43594.43594,0,0,0-.07079-.00784c-.04317-.00394-.0825-.00787-.11789-.00787-.09036-.00393-.14532-.00393-.14532-.00393a.50412.50412,0,0,0-.07463.00786c-.0118,0-.02753.00394-.04326.00394-.47147.04714-2.31808.224-2.68354,1.9527a3.33514,3.33514,0,0,0,.79769,3.155v.00394a1.064,1.064,0,0,1,.07463.07856l.0117.0118a1.11055,1.11055,0,0,1,.08652.34575,4.00279,4.00279,0,0,1,.0943,1.2887,1.37266,1.37266,0,0,1-.71511.664,14.76193,14.76193,0,0,1-5.32382-.62076,1.72813,1.72813,0,0,1-1.26513-1.53626c-.3693-4.91125-.07069-11.99133-.07069-11.99133l18.38382.17681a.05833.05833,0,0,0-.00393.02751A.31557.31557,0,0,1,89.36049,102.59781Z"/>
        </g>
      </g>
    </g>
  </g>
</svg>
